<?xml version="1.0" encoding="UTF-8"?>
<svg id="Layer_1" data-name="Layer 1" xmlns="http://www.w3.org/2000/svg" version="1.1" viewBox="0 0 532.9 117.7">
  <defs>
    <style>
      .cls-1 {
        fill: #231815;
      }

      .cls-1, .cls-2, .cls-3, .cls-4, .cls-5 {
        stroke-width: 0px;
      }

      .cls-6 {
        stroke: #e4007f;
      }

      .cls-6, .cls-2, .cls-7, .cls-8 {
        fill: none;
      }

      .cls-6, .cls-7, .cls-8 {
        stroke-miterlimit: 10;
      }

      .cls-6, .cls-8 {
        stroke-width: 1.5px;
      }

      .cls-7 {
        stroke: #231815;
      }

      .cls-3 {
        fill: #040000;
      }

      .cls-8 {
        stroke: #00a0e9;
      }

      .cls-4 {
        fill: #1c96d4;
        isolation: isolate;
        opacity: .2;
      }

      .cls-5 {
        fill: #e4007f;
      }
    </style>
  </defs>
  <rect class="cls-4" x="56" y="34.6" width="205" height="44.5"/>
  <rect class="cls-4" x="56" y="21.9" width="304.3" height="57.2"/>
  <g>
    <line class="cls-2" x1="47.3" y1="79.1" x2="485.6" y2="79.1"/>
    <g>
      <line class="cls-7" x1="47.3" y1="79.1" x2="478.5" y2="79.1"/>
      <polygon class="cls-1" points="485.6 79.1 475.6 83.2 478 79.1 475.6 75 485.6 79.1"/>
    </g>
  </g>
  <g>
    <polyline class="cls-7" points="261 79.1 261 34.6 63.1 34.6"/>
    <polygon class="cls-1" points="56 34.6 66 30.6 63.6 34.6 66 38.7 56 34.6"/>
  </g>
  <g>
    <polyline class="cls-7" points="360.3 79.1 360.3 21.9 63.1 21.9"/>
    <polygon class="cls-1" points="56 21.9 66 17.8 63.6 21.9 66 25.9 56 21.9"/>
  </g>
  <circle class="cls-1" cx="261" cy="79.1" r="2.6"/>
  <circle class="cls-1" cx="360.3" cy="79.1" r="2.6"/>
  <g>
    <path class="cls-1" d="M465,102.6v-4.8h-5.6v-1h12.4v1h-5.5v4.8h-1.2ZM461.4,89.5h8.4c.1,0,.2,0,.2,0s0,.1,0,.2v4.6c0,.1,0,.2,0,.2s-.1,0-.2,0h-8.4c-.1,0-.2,0-.2,0s0-.1,0-.2v-4.6c0-.1,0-.2,0-.2,0,0,.1,0,.2,0ZM462.2,93.7h6.7v-3.2h-6.7v3.2Z"/>
    <path class="cls-1" d="M478.1,90c.1,0,.2,0,.2,0,0,0,0,.1,0,.2,0,2-.5,3.8-1.2,5.3-.7,1.5-1.9,2.8-3.5,4l-1-.7c1.4-.9,2.5-2.1,3.2-3.4s1.2-2.9,1.2-4.5h-3.7v-1h4.6,0ZM478.1,94h2.3v-4.7h1.2v12.6h-1.2v-6.8h-2.3v-1.1ZM484.1,89.1v13.5h-1.2v-13.5s1.2,0,1.2,0Z"/>
  </g>
  <g>
    <line class="cls-8" x1="239.5" y1="75.5" x2="246.8" y2="82.3"/>
    <line class="cls-8" x1="246.8" y1="75.5" x2="239.5" y2="82.3"/>
  </g>
  <g>
    <line class="cls-8" x1="221.9" y1="75.5" x2="229.3" y2="82.3"/>
    <line class="cls-8" x1="229.3" y1="75.5" x2="221.9" y2="82.3"/>
  </g>
  <g>
    <line class="cls-6" x1="167.4" y1="75.5" x2="174.7" y2="82.3"/>
    <line class="cls-6" x1="174.7" y1="75.5" x2="167.4" y2="82.3"/>
  </g>
  <g>
    <line class="cls-8" x1="137.2" y1="75.5" x2="144.5" y2="82.3"/>
    <line class="cls-8" x1="144.5" y1="75.5" x2="137.2" y2="82.3"/>
  </g>
  <g>
    <line class="cls-8" x1="101.5" y1="75.5" x2="108.8" y2="82.3"/>
    <line class="cls-8" x1="108.8" y1="75.5" x2="101.5" y2="82.3"/>
  </g>
  <g>
    <line class="cls-8" x1="338.1" y1="75.5" x2="345.4" y2="82.3"/>
    <line class="cls-8" x1="345.4" y1="75.5" x2="338.1" y2="82.3"/>
  </g>
  <g>
    <line class="cls-8" x1="307.9" y1="75.5" x2="315.3" y2="82.3"/>
    <line class="cls-8" x1="315.3" y1="75.5" x2="307.9" y2="82.3"/>
  </g>
  <g>
    <line class="cls-6" x1="290.1" y1="75.5" x2="297.4" y2="82.3"/>
    <line class="cls-6" x1="297.4" y1="75.5" x2="290.1" y2="82.3"/>
  </g>
  <g>
    <path class="cls-5" d="M298.6,91.1c.1-.6.2-.8,1.4-.8s.5,0,.5-.3-.2-.2-.4-.2h-2.1c-.4,0-.4,0-.6.3l-5.9,9.3-1.3-9.2c0-.4,0-.4-.5-.4h-2.2c-.3,0-.5,0-.5.3s.1.2.5.2.5,0,.7,0c.3,0,.4,0,.4.3s0,.1,0,.3l-2.1,8.3c-.2.7-.4,1.2-1.8,1.2,0,0-.3,0-.3.3s.1.2.2.2c.5,0,1.1,0,1.6,0s1.1,0,1.7,0,.3,0,.3-.3-.2-.2-.3-.2c-.9,0-1.1-.3-1.1-.7s0-.2,0-.4l2.2-8.9h0l1.4,10.1c0,.2,0,.4.2.4s.3-.2.4-.3l6.6-10.3h0l-2.3,9.3c-.2.6-.2.8-1.5.8s-.4,0-.4.3.2.2.2.2c.5,0,1.6,0,2,0,.7,0,1.4,0,2,0s.3,0,.3-.3-.1-.2-.4-.2c-.6,0-1.1,0-1.1-.3s0,0,0-.4l2.2-8.7"/>
    <path class="cls-5" d="M300.7,102.1c0,.2-.1.3-.1.5,0,.5.5,1,1.1,1,1.1,0,1.6-1.6,1.6-1.7s-.1-.2-.2-.2c-.2,0-.2,0-.2.2-.3.9-.8,1.4-1.2,1.4s-.3-.2-.3-.4,0-.5.2-.7c.1-.3.2-.6.4-.9.1-.3.5-1.3.6-1.4,0-.1,0-.2,0-.4,0-.5-.5-1-1.1-1-1.1,0-1.6,1.6-1.6,1.7s.2.2.2.2c.2,0,.2,0,.2-.2.3-1,.8-1.4,1.2-1.4s.3,0,.3.4,0,.4-.4,1.1l-.7,1.8M303,96.3c0-.2-.1-.4-.4-.4s-.6.3-.6.6.1.4.4.4.6-.3.6-.6Z"/>
  </g>
  <g>
    <path class="cls-3" d="M364,89.9s0-.2-.2-.2,0,0-.2.2l-1.1,1.3c-.1-.2-.9-1.4-2.7-1.4-3.6,0-7.3,3.6-7.3,7.4s1.9,4.5,4.4,4.5,2.6-.7,3.5-1.4c1.5-1.3,1.8-2.8,1.8-2.9,0-.2-.2-.2-.2-.2-.1,0-.2,0-.2.2-.1.5-.5,1.6-1.6,2.6-1.1.9-2.1,1.2-3,1.2-1.5,0-3.2-.8-3.2-3.4s.3-3.6,2-5.5c1-1.2,2.5-2,4-2s2.6,1.2,2.6,3.1,0,.7,0,.8.2.2.2.2c.2,0,.2,0,.3-.3l1-4.2"/>
    <path class="cls-3" d="M365.8,104.2c-.2.8-.8,1.4-1.5,1.4s-.3,0-.4,0c.3-.1.4-.4.4-.6,0-.3-.2-.4-.4-.4-.4,0-.6.3-.6.7s.4.7,1.1.7,2-.4,2.4-1.8l1-4.1c0-.1,0-.2,0-.4,0-.6-.5-1.1-1.2-1.1-1.3,0-2,1.6-2,1.7s.2.2.2.2c.1,0,.1,0,.2-.2.3-.7.9-1.4,1.5-1.4s.4.2.4.6,0,.3,0,.3l-1.1,4.4M368.2,96.6c0-.2-.1-.4-.5-.4s-.6.3-.6.6.1.4.5.4.6-.3.6-.6Z"/>
  </g>
</svg>