<?xml version="1.0" encoding="UTF-8"?>
<svg id="Layer_1" data-name="Layer 1" xmlns="http://www.w3.org/2000/svg" version="1.1" viewBox="0 0 516.33 127.56">
  <defs>
    <style>
      .cls-1 {
        fill: #231815;
        stroke-width: 0px;
      }

      .cls-2 {
        fill: none;
      }

      .cls-2, .cls-3 {
        stroke: #231815;
        stroke-miterlimit: 10;
      }

      .cls-3 {
        fill: #fff;
      }
    </style>
  </defs>
  <circle class="cls-3" cx="73.24" cy="64.15" r="13.8"/>
  <path class="cls-1" d="M77.17,59.1l-2.35,3.3c-.76,1.08-1.01,2.57-1.08,2.97-.14.94-.19,1.89-.19,2.85v.89c0,.17,0,.96-.8.96s-.8-.78-.8-.96c0-1.77.57-4.19,2.14-6.53l1.95-2.75h-3.6c-.23,0-1.58,0-1.7.1-.23.21-.38,1.3-.43,1.58h-.43l.57-3.58h.43c.07.33.1.56,2.22.56h4.22c0,.36,0,.4-.16.61Z"/>
  <circle class="cls-3" cx="106.87" cy="64.15" r="13.8"/>
  <path class="cls-1" d="M106.76,70.07c-1.89,0-3.51-1.15-3.51-2.73,0-.76.56-1.01.97-1.01.5,0,.97.35.97.97,0,.66-.54,1.04-1.15.96.61,1.03,1.91,1.32,2.66,1.32s1.96-.5,1.96-2.87c0-1.7-.64-2.88-2.07-2.88h-.77c-.3,0-.42,0-.42-.19,0-.17.12-.19.26-.21.12,0,.54-.03.68-.05.43-.02,1.03-.07,1.55-.9.45-.77.49-1.77.49-1.98,0-1.56-.96-1.95-1.67-1.95-.63,0-1.77.23-2.31,1.08.26,0,1.08,0,1.08.87,0,.5-.35.89-.89.89-.5,0-.89-.33-.89-.9,0-1.32,1.32-2.36,3.08-2.36s3.2.97,3.2,2.4-1.01,2.59-2.43,3.06c1.81.36,2.9,1.72,2.9,3.15,0,1.77-1.58,3.35-3.7,3.35Z"/>
  <circle class="cls-3" cx="140.49" cy="64.15" r="13.8"/>
  <path class="cls-1" d="M143.46,69.68h-6.45c0-.42,0-.45.19-.64l3.34-3.72c.96-1.08,1.83-2.45,1.83-3.84s-.75-2.83-2.33-2.83c-1.01,0-1.95.64-2.35,1.77.05-.02.09-.02.23-.02.61,0,.92.45.92.9,0,.71-.61.92-.9.92-.05,0-.92,0-.92-.97,0-1.55,1.29-3.15,3.25-3.15,2.12,0,3.68,1.39,3.68,3.37,0,1.74-1.04,2.68-3.75,5.07l-1.84,1.79h3.13c.38,0,1.53,0,1.65-.14.17-.26.3-1.03.38-1.55h.43l-.49,3.02Z"/>
  <circle class="cls-3" cx="174.11" cy="64.15" r="13.8"/>
  <path class="cls-1" d="M173.78,70.07c-1.95,0-3.15-1.69-3.15-3.18,0-.8.61-.92.85-.92.57,0,.87.43.87.85s-.3.85-.87.85c-.19,0-.24-.02-.3-.03.3,1.03,1.29,1.95,2.55,1.95.8,0,1.44-.45,1.86-1.13.42-.73.42-1.77.42-2.38,0-.87-.03-1.55-.31-2.19-.14-.31-.57-1.11-1.48-1.11-1.41,0-2.05.94-2.24,1.22-.07.1-.1.16-.23.16-.24,0-.24-.14-.24-.45v-5.14c0-.28,0-.42.17-.42,0,0,.07,0,.21.05.82.36,1.62.49,2.31.49,1.16,0,2.02-.35,2.36-.5.09-.05.14-.05.14-.05.12,0,.17.09.17.19,0,.23-1.22,1.81-3.35,1.81-.56,0-1.13-.12-1.48-.23v3.39c.63-.61,1.37-.89,2.21-.89,1.88,0,3.3,1.74,3.3,3.81,0,2.21-1.77,3.88-3.79,3.88Z"/>
  <circle class="cls-3" cx="207.73" cy="64.15" r="13.8"/>
  <path class="cls-1" d="M207.85,69.63c-.7,0-2.21,0-2.82.05v-.54h.56c1.56,0,1.62-.21,1.62-.83v-9c-.9.45-1.93.45-2.28.45v-.54c.56,0,2.09,0,3.16-1.11.4,0,.4.03.4.45v9.75c0,.64.05.83,1.62.83h.56v.54c-.61-.05-2.12-.05-2.82-.05Z"/>
  <circle class="cls-3" cx="241.36" cy="64.15" r="13.8"/>
  <path class="cls-1" d="M241.34,70.07c-1.83,0-3.6-1.16-3.6-3.01,0-1.72,1.49-2.69,2.5-3.2-.43-.3-1.08-.73-1.27-.94-.73-.82-.76-1.6-.76-1.91,0-1.62,1.41-2.9,3.15-2.9,1.58,0,3.13.99,3.13,2.59,0,1.15-.85,2.05-2.1,2.69,1.11.7,1.39.87,1.72,1.23.66.73.85,1.51.85,2.14,0,1.86-1.65,3.3-3.61,3.3ZM242.78,65.48l-2.14-1.36c-1.48.82-2.03,1.93-2.03,2.94,0,1.44,1.25,2.52,2.75,2.52s2.73-.9,2.73-2.19c0-1.06-.82-1.58-1.3-1.91ZM241.34,58.54c-1.23,0-2.36.73-2.36,1.79,0,.3.07.89.87,1.41l2.15,1.39c1.04-.61,1.72-1.44,1.72-2.43,0-1.25-1.11-2.16-2.38-2.16Z"/>
  <circle class="cls-3" cx="274.98" cy="64.15" r="13.8"/>
  <path class="cls-1" d="M274.21,70.07c-1.48,0-2.42-.71-2.42-1.88,0-.68.52-.83.8-.83.38,0,.8.26.8.8,0,.3-.14.8-.9.8.47.59,1.41.63,1.7.63,1.01,0,2.82-.8,2.82-4.87v-.56c-.4,1.01-1.11,1.74-2.17,1.74-1.95,0-3.48-1.7-3.48-3.88,0-1.3.4-2.03,1.11-2.82.75-.78,1.6-1.09,2.55-1.09,1.55,0,3.55,1.18,3.55,5.86,0,3.74-2.12,6.1-4.36,6.1ZM276.7,59.92c-.3-.78-.87-1.37-1.67-1.37-.61,0-1.27.23-1.74,1.1-.37.64-.37,1.46-.37,2.4,0,.85,0,1.72.31,2.36.54,1.1,1.34,1.1,1.62,1.1,1.53,0,2.12-1.69,2.12-3.13,0-.8-.07-1.89-.28-2.45Z"/>
  <circle class="cls-3" cx="308.6" cy="64.15" r="13.8"/>
  <path class="cls-1" d="M311.61,68.05c-.76,1.65-2.08,2.02-3.02,2.02-.85,0-2.12-.35-2.87-1.76-.71-1.32-.78-2.88-.78-4.19,0-1.39.09-2.75.64-3.95.71-1.62,1.98-2.07,3.02-2.07.73,0,2.16.28,2.96,1.95.61,1.29.7,2.68.7,4.07s-.09,2.73-.64,3.93ZM310.63,60.52c-.33-1.72-1.48-2.03-2.05-2.03-.43,0-1.74.16-2.07,2.22-.14.94-.14,2.09-.14,3.2,0,1.03,0,2.62.19,3.67.31,1.67,1.34,2.1,2.02,2.1.78,0,1.77-.52,2.03-2.17.19-1.11.19-2.29.19-3.6,0-1.1,0-2.42-.17-3.39Z"/>
  <circle class="cls-3" cx="342.22" cy="64.15" r="13.8"/>
  <path class="cls-1" d="M342.21,70.07c-1.83,0-3.6-1.16-3.6-3.01,0-1.72,1.5-2.69,2.5-3.2-.43-.3-1.08-.73-1.27-.94-.73-.82-.76-1.6-.76-1.91,0-1.62,1.41-2.9,3.15-2.9,1.58,0,3.13.99,3.13,2.59,0,1.15-.85,2.05-2.1,2.69,1.11.7,1.39.87,1.72,1.23.66.73.85,1.51.85,2.14,0,1.86-1.65,3.3-3.62,3.3ZM343.65,65.48l-2.14-1.36c-1.48.82-2.03,1.93-2.03,2.94,0,1.44,1.25,2.52,2.75,2.52s2.73-.9,2.73-2.19c0-1.06-.82-1.58-1.3-1.91ZM342.21,58.54c-1.23,0-2.36.73-2.36,1.79,0,.3.07.89.87,1.41l2.15,1.39c1.04-.61,1.72-1.44,1.72-2.43,0-1.25-1.11-2.16-2.38-2.16Z"/>
  <circle class="cls-3" cx="375.85" cy="64.15" r="13.8"/>
  <path class="cls-1" d="M379.77,59.1l-2.35,3.3c-.76,1.08-1.01,2.57-1.08,2.97-.14.94-.19,1.89-.19,2.85v.89c0,.17,0,.96-.8.96s-.8-.78-.8-.96c0-1.77.57-4.19,2.14-6.53l1.95-2.75h-3.6c-.23,0-1.58,0-1.7.1-.23.21-.38,1.3-.43,1.58h-.43l.57-3.58h.43c.07.33.1.56,2.22.56h4.22c0,.36,0,.4-.16.61Z"/>
  <circle class="cls-3" cx="409.47" cy="64.15" r="13.8"/>
  <path class="cls-1" d="M409.45,70.07c-1.83,0-3.6-1.16-3.6-3.01,0-1.72,1.5-2.69,2.5-3.2-.43-.3-1.08-.73-1.27-.94-.73-.82-.76-1.6-.76-1.91,0-1.62,1.41-2.9,3.15-2.9,1.58,0,3.13.99,3.13,2.59,0,1.15-.85,2.05-2.1,2.69,1.11.7,1.39.87,1.72,1.23.66.73.85,1.51.85,2.14,0,1.86-1.65,3.3-3.62,3.3ZM410.89,65.48l-2.14-1.36c-1.48.82-2.03,1.93-2.03,2.94,0,1.44,1.25,2.52,2.75,2.52s2.73-.9,2.73-2.19c0-1.06-.82-1.58-1.3-1.91ZM409.45,58.54c-1.23,0-2.36.73-2.36,1.79,0,.3.07.89.87,1.41l2.15,1.39c1.04-.61,1.72-1.44,1.72-2.43,0-1.25-1.11-2.16-2.38-2.16Z"/>
  <circle class="cls-3" cx="443.09" cy="64.15" r="13.8"/>
  <path class="cls-1" d="M443.35,69.86v.8h-.54v-.78c-2.17-.14-3.09-1.74-3.09-3.29,0-.85.7-.89.8-.89.43,0,.8.31.8.8s-.33.8-.8.8c-.07,0-.21-.02-.28-.04.23,1.08,1.04,1.96,2.57,2.05v-5.18c-.89-.23-1.48-.37-2.14-1.04-.31-.3-.96-1.13-.96-2.33,0-1.58,1.16-3.15,3.09-3.32v-.8h.54v.78c1.95.1,3.09,1.37,3.09,3.06,0,.85-.75.87-.8.87-.37,0-.8-.26-.8-.8,0-.49.35-.8.8-.8.17,0,.21.02.28.03-.26-.97-1.09-1.74-2.57-1.81v4.69c.83.21,1.46.36,2.16,1.13.16.16.94,1.04.94,2.49,0,1.79-1.27,3.41-3.09,3.56ZM442.81,57.99c-1.39.14-2.21,1.22-2.21,2.26,0,.35.07,1.84,2.21,2.29v-4.55ZM443.35,64.28v5.04c1.37-.17,2.21-1.34,2.21-2.5,0-.42-.12-2.1-2.21-2.54Z"/>
  <g>
    <path class="cls-2" d="M207.73,77.96s29.35,31.27,62.01,4.74"/>
    <polygon class="cls-1" points="274.98 77.96 270.24 87.6 269.31 83 264.84 81.53 274.98 77.96"/>
  </g>
  <g>
    <path class="cls-2" d="M73.24,77.96s59.96,32.33,128.07,2.94"/>
    <polygon class="cls-1" points="207.73 77.96 200.35 85.77 200.82 81.09 196.99 78.36 207.73 77.96"/>
  </g>
  <g>
    <path class="cls-2" d="M73.24,50.46s116.11-44.2,228.77-2.54"/>
    <polygon class="cls-1" points="308.6 50.46 297.86 50.77 301.5 47.8 300.72 43.16 308.6 50.46"/>
  </g>
  <g>
    <path class="cls-2" d="M308.6,50.46s63.19-37.27,128.31-3.42"/>
    <polygon class="cls-1" points="443.09 50.46 432.41 49.25 436.44 46.82 436.32 42.12 443.09 50.46"/>
  </g>
  <g>
    <path class="cls-1" d="M234.15,109.46v-1.15h2.73v-5.4h-2.45v-1.15h3.71v6.55h2.59v1.15h-6.58ZM237.37,100.37c-.31,0-.55-.08-.73-.24-.18-.16-.27-.37-.27-.64s.09-.5.27-.67c.18-.16.42-.25.73-.25s.55.08.73.25c.18.16.27.38.27.67s-.09.49-.27.64c-.18.16-.42.24-.73.24Z"/>
    <path class="cls-1" d="M246.33,109.46c-.64,0-1.14-.18-1.53-.55-.38-.37-.57-.86-.57-1.48v-4.52h-2.21v-1.15h2.21v-2.17h1.26v2.17h3.15v1.15h-3.15v4.52c0,.26.08.47.23.64.15.16.36.24.61.24h2.24v1.15h-2.24Z"/>
  </g>
  <g>
    <path class="cls-1" d="M125.26,109.46v-7.7h1.26v1.47h.03c.07-.49.28-.89.63-1.18.35-.29.83-.43,1.43-.43.8,0,1.42.24,1.85.72s.65,1.16.65,2.05v.66h-1.26v-.66c0-1.12-.55-1.68-1.64-1.68-.55,0-.97.16-1.26.48-.29.32-.43.78-.43,1.37v4.9h-1.26Z"/>
    <path class="cls-1" d="M136.29,109.6c-.91,0-1.64-.27-2.19-.82s-.83-1.3-.83-2.26v-1.82c0-.96.28-1.71.83-2.26.56-.55,1.29-.82,2.19-.82.61,0,1.14.12,1.59.36.45.24.81.58,1.06,1.02s.38.96.38,1.55v1.37h-4.82v.73c0,.57.16,1.02.49,1.35.33.33.76.5,1.3.5.47,0,.85-.09,1.15-.27.3-.18.49-.43.55-.74h1.26c-.08.64-.4,1.16-.94,1.53-.54.38-1.22.57-2.03.57ZM134.5,104.95h3.58v-.39c0-.61-.16-1.08-.47-1.41-.31-.33-.75-.5-1.32-.5s-1.01.17-1.32.5c-.31.33-.47.8-.47,1.41v.39Z"/>
    <path class="cls-1" d="M144.02,109.6c-.79,0-1.42-.22-1.89-.67-.47-.44-.7-1.02-.7-1.74,0-.48.11-.89.32-1.25.21-.35.51-.63.9-.83.38-.2.82-.3,1.32-.3h2.38v-.6c0-1-.55-1.5-1.64-1.5-.49,0-.88.09-1.18.27-.3.18-.46.42-.48.74h-1.26c.05-.61.33-1.11.85-1.5s1.21-.59,2.06-.59c.93,0,1.65.22,2.15.67.5.45.75,1.07.75,1.88v5.29h-1.25v-1.4h-.03c-.07.48-.31.85-.71,1.13-.4.28-.93.41-1.6.41ZM144.32,108.53c.62,0,1.11-.15,1.47-.45.36-.3.55-.7.55-1.22v-1.08h-2.24c-.41,0-.74.12-1,.37s-.38.58-.38.99.14.77.43,1.01.68.37,1.18.37Z"/>
    <path class="cls-1" d="M154.21,109.46c-.68,0-1.22-.2-1.63-.59-.41-.4-.61-.92-.61-1.58v-6.9h-2.66v-1.15h3.92v8.05c0,.32.09.57.27.75s.42.27.71.27h2.38v1.15h-2.38Z"/>
  </g>
  <g>
    <path class="cls-1" d="M166.1,24.62v-7.7h1.26v1.47h.03c.07-.49.28-.89.63-1.18.35-.29.83-.43,1.43-.43.8,0,1.42.24,1.85.72s.65,1.16.65,2.05v.66h-1.26v-.66c0-1.12-.55-1.68-1.64-1.68-.55,0-.97.16-1.26.48-.29.32-.43.78-.43,1.37v4.9h-1.26Z"/>
    <path class="cls-1" d="M177.13,24.76c-.91,0-1.64-.27-2.19-.82s-.83-1.3-.83-2.26v-1.82c0-.96.28-1.71.83-2.26.56-.55,1.29-.82,2.19-.82.61,0,1.14.12,1.59.36.45.24.81.58,1.06,1.02s.38.96.38,1.55v1.37h-4.82v.73c0,.57.16,1.02.49,1.35.33.33.76.5,1.3.5.47,0,.85-.09,1.15-.27.3-.18.49-.43.55-.74h1.26c-.08.64-.4,1.16-.94,1.53-.54.38-1.22.57-2.03.57ZM175.34,20.11h3.58v-.39c0-.61-.16-1.08-.47-1.41-.31-.33-.75-.5-1.32-.5s-1.01.17-1.32.5c-.31.33-.47.8-.47,1.41v.39Z"/>
    <path class="cls-1" d="M184.86,24.76c-.79,0-1.42-.22-1.89-.67-.47-.44-.7-1.02-.7-1.74,0-.48.11-.89.32-1.25.21-.35.51-.63.9-.83.38-.2.82-.3,1.32-.3h2.38v-.6c0-1-.55-1.5-1.64-1.5-.49,0-.88.09-1.18.27-.3.18-.46.42-.48.74h-1.26c.05-.61.33-1.11.85-1.5s1.21-.59,2.06-.59c.93,0,1.65.22,2.15.67.5.45.75,1.07.75,1.88v5.29h-1.25v-1.4h-.03c-.07.48-.31.85-.71,1.13-.4.28-.93.41-1.6.41ZM185.17,23.69c.62,0,1.11-.15,1.47-.45.36-.3.55-.7.55-1.22v-1.08h-2.24c-.41,0-.74.12-1,.37s-.38.58-.38.99.14.77.43,1.01.68.37,1.18.37Z"/>
    <path class="cls-1" d="M195.05,24.62c-.68,0-1.22-.2-1.63-.59-.41-.4-.61-.92-.61-1.58v-6.9h-2.66v-1.15h3.92v8.05c0,.32.09.57.27.75s.42.27.71.27h2.38v1.15h-2.38Z"/>
    <path class="cls-1" d="M199.32,24.62v-1.15h2.73v-5.4h-2.45v-1.15h3.71v6.55h2.59v1.15h-6.58ZM202.54,15.53c-.31,0-.55-.08-.73-.24-.18-.16-.27-.37-.27-.64s.09-.5.27-.67c.18-.16.42-.25.73-.25s.55.08.73.25c.18.16.27.38.27.67s-.09.49-.27.64c-.18.16-.42.24-.73.24Z"/>
    <path class="cls-1" d="M211.5,24.62c-.64,0-1.14-.18-1.53-.55-.38-.37-.57-.86-.57-1.48v-4.52h-2.21v-1.15h2.21v-2.17h1.26v2.17h3.15v1.15h-3.15v4.52c0,.26.08.47.23.64.15.16.36.24.61.24h2.24v1.15h-2.24Z"/>
    <path class="cls-1" d="M217.42,27.14l1.13-3-2.87-7.22h1.36l1.82,4.76c.07.19.14.38.21.59.06.21.11.38.14.53.03-.15.07-.33.14-.53.07-.21.13-.4.2-.59l1.69-4.76h1.33l-3.84,10.22h-1.32Z"/>
  </g>
  <g>
    <path class="cls-1" d="M367.45,26.73c-.92,0-1.66-.27-2.21-.81-.55-.54-.82-1.3-.82-2.27v-1.76c0-.98.27-1.74.81-2.27s1.28-.8,2.21-.8,1.67.27,2.21.8.81,1.29.81,2.27v1.76c0,.97-.27,1.73-.82,2.27-.55.54-1.28.81-2.21.81ZM367.45,25.61c.55,0,.98-.15,1.29-.46.31-.31.47-.76.47-1.36v-2.04c0-.6-.16-1.05-.47-1.36-.31-.31-.74-.46-1.29-.46s-.97.15-1.29.46c-.32.31-.48.76-.48,1.36v2.04c0,.6.16,1.05.48,1.36.32.31.75.46,1.29.46Z"/>
    <path class="cls-1" d="M375.83,26.76c-.89,0-1.6-.26-2.13-.79-.53-.53-.8-1.24-.8-2.15v-4.9h1.26v4.9c0,.56.15,1.01.45,1.34s.7.5,1.22.5.94-.17,1.24-.5c.3-.33.46-.78.46-1.34v-4.9h1.26v4.9c0,.91-.27,1.62-.81,2.15-.54.53-1.26.79-2.14.79Z"/>
    <path class="cls-1" d="M381.61,26.62v-7.7h1.26v1.47h.03c.07-.49.28-.89.63-1.18.35-.29.83-.43,1.43-.43.8,0,1.42.24,1.86.72.43.48.65,1.16.65,2.05v.66h-1.26v-.66c0-1.12-.55-1.68-1.64-1.68-.55,0-.97.16-1.26.48-.29.32-.43.78-.43,1.37v4.9h-1.26Z"/>
  </g>
  <g>
    <path class="cls-1" d="M347.74,111.98l1.13-3-2.87-7.22h1.36l1.82,4.76c.08.19.14.38.21.59.07.21.11.38.14.53.03-.15.07-.33.14-.53.07-.21.13-.4.2-.59l1.69-4.76h1.33l-3.84,10.22h-1.32Z"/>
    <path class="cls-1" d="M357.84,109.57c-.92,0-1.66-.27-2.21-.81-.55-.54-.82-1.3-.82-2.27v-1.76c0-.98.27-1.74.81-2.27s1.28-.8,2.21-.8,1.67.27,2.21.8.81,1.29.81,2.27v1.76c0,.97-.27,1.73-.82,2.27-.55.54-1.28.81-2.21.81ZM357.84,108.45c.55,0,.98-.15,1.29-.46.31-.31.47-.76.47-1.36v-2.04c0-.6-.16-1.05-.47-1.36-.31-.31-.74-.46-1.29-.46s-.97.15-1.29.46c-.32.31-.48.76-.48,1.36v2.04c0,.6.16,1.05.48,1.36.32.31.75.46,1.29.46Z"/>
    <path class="cls-1" d="M366.23,109.6c-.89,0-1.6-.26-2.13-.79-.53-.53-.8-1.24-.8-2.15v-4.9h1.26v4.9c0,.56.15,1.01.45,1.34s.7.5,1.22.5.94-.17,1.24-.5c.3-.33.46-.78.46-1.34v-4.9h1.26v4.9c0,.91-.27,1.62-.81,2.15-.54.53-1.26.79-2.14.79Z"/>
    <path class="cls-1" d="M372.01,109.46v-7.7h1.26v1.47h.03c.07-.49.28-.89.63-1.18.35-.29.83-.43,1.43-.43.8,0,1.42.24,1.86.72.43.48.65,1.16.65,2.05v.66h-1.26v-.66c0-1.12-.55-1.68-1.64-1.68-.55,0-.97.16-1.26.48-.29.32-.43.78-.43,1.37v4.9h-1.26Z"/>
  </g>
  <g>
    <path class="cls-2" d="M274.98,77.96s82.39,29.81,161.49,2.43"/>
    <polygon class="cls-1" points="443.09 77.96 435.13 85.18 435.96 80.55 432.35 77.54 443.09 77.96"/>
  </g>
</svg>