<?xml version="1.0" encoding="utf-8"?>
<!-- Generator: Adobe Illustrator 27.0.0, SVG Export Plug-In . SVG Version: 6.00 Build 0)  -->
<svg version="1.1" id="Layer_1" xmlns="http://www.w3.org/2000/svg" xmlns:xlink="http://www.w3.org/1999/xlink" x="0px" y="0px"
	 viewBox="0 0 1284.15 494.75" style="enable-background:new 0 0 1284.15 494.75;" xml:space="preserve">
<style type="text/css">
	.st0{opacity:0.4;fill:#E6E7E8;}
	.st1{opacity:0.2;fill:#EC008C;}
	.st2{opacity:0.2;fill:#00AEEF;}
	.st3{fill:#FFFFFF;}
	.st4{fill:none;stroke:#000000;stroke-width:3;stroke-miterlimit:10;}
	.st5{stroke:#000000;stroke-width:3;stroke-miterlimit:10;}
	.st6{fill:#FFFFFF;stroke:#000000;stroke-width:2;stroke-miterlimit:10;}
</style>
<rect x="555.06" class="st0" width="174.03" height="389.7"/>
<rect x="729.09" class="st1" width="555.06" height="389.7"/>
<rect x="0" class="st2" width="555.06" height="389.7"/>
<g>
	<line class="st3" x1="0" y1="389.7" x2="1284.15" y2="389.7"/>
	<g>
		<line class="st4" x1="0" y1="389.7" x2="1262.97" y2="389.7"/>
		<g>
			<polygon points="1284.15,389.7 1254.3,401.89 1261.39,389.7 1254.3,377.5 			"/>
		</g>
	</g>
</g>
<g>
	<path class="st3" d="M103.23,397.09c-4.08,0-7.4-3.32-7.4-7.4s3.32-7.4,7.4-7.4h136.2c4.08,0,7.4,3.32,7.4,7.4s-3.32,7.4-7.4,7.4
		H103.23z"/>
	<path d="M239.43,383.3c3.53,0,6.4,2.87,6.4,6.4s-2.87,6.4-6.4,6.4h-136.2c-3.53,0-6.4-2.87-6.4-6.4s2.87-6.4,6.4-6.4H239.43
		 M239.43,381.3h-136.2c-4.64,0-8.4,3.76-8.4,8.4s3.76,8.4,8.4,8.4h136.2c4.64,0,8.4-3.76,8.4-8.4S244.07,381.3,239.43,381.3
		L239.43,381.3z"/>
</g>
<g>
	<path class="st3" d="M555.06,397.09c-4.08,0-7.4-3.32-7.4-7.4s3.32-7.4,7.4-7.4h174.03c4.08,0,7.4,3.32,7.4,7.4s-3.32,7.4-7.4,7.4
		H555.06z"/>
	<path d="M729.09,383.3c3.53,0,6.4,2.87,6.4,6.4c0,3.53-2.87,6.4-6.4,6.4H555.06c-3.53,0-6.4-2.87-6.4-6.4c0-3.53,2.87-6.4,6.4-6.4
		H729.09 M729.09,381.3H555.06c-4.64,0-8.4,3.76-8.4,8.4v0c0,4.64,3.76,8.4,8.4,8.4h174.03c4.64,0,8.4-3.76,8.4-8.4v0
		C737.49,385.06,733.73,381.3,729.09,381.3L729.09,381.3z"/>
</g>
<g>
	<path class="st3" d="M1100.01,397.09c-4.08,0-7.4-3.32-7.4-7.4s3.32-7.4,7.4-7.4h39.19c4.08,0,7.4,3.32,7.4,7.4s-3.32,7.4-7.4,7.4
		H1100.01z"/>
	<path d="M1139.2,383.3c3.53,0,6.4,2.87,6.4,6.4s-2.87,6.4-6.4,6.4h-39.19c-3.53,0-6.4-2.87-6.4-6.4c0-3.53,2.87-6.4,6.4-6.4H1139.2
		 M1139.2,381.3h-39.19c-4.64,0-8.4,3.76-8.4,8.4v0c0,4.64,3.76,8.4,8.4,8.4h39.19c4.64,0,8.4-3.76,8.4-8.4v0
		C1147.6,385.06,1143.84,381.3,1139.2,381.3L1139.2,381.3z"/>
</g>
<g>
	<path d="M609.5,28.81h19.69v3.46H609.5V28.81z M619.68,46.07c-2.97,0-5.22-0.6-6.76-1.81c-1.54-1.21-2.31-2.66-2.31-4.36
		c0-1.7,0.76-3.14,2.29-4.34c1.52-1.19,3.78-1.79,6.78-1.79c2.97,0,5.23,0.6,6.78,1.79c1.55,1.19,2.33,2.64,2.33,4.34
		c0,1.7-0.78,3.15-2.35,4.36C624.88,45.47,622.62,46.07,619.68,46.07z M614.27,23.24h10.98v3.38h-10.98V23.24z M616.22,58.33
		c-0.42,0-0.71-0.08-0.86-0.24c-0.15-0.16-0.22-0.45-0.22-0.88V48.3h4.65v6.21h20.13v3.82H616.22z M619.68,37.12
		c-1.41,0-2.5,0.25-3.28,0.74c-0.78,0.49-1.17,1.17-1.17,2.05c0,0.95,0.39,1.66,1.17,2.11c0.78,0.45,1.88,0.68,3.28,0.68
		c1.38,0,2.47-0.23,3.28-0.68c0.81-0.45,1.21-1.15,1.21-2.11c0-0.88-0.4-1.56-1.21-2.05C622.15,37.37,621.06,37.12,619.68,37.12z
		 M634.64,50.01v-5.85h-5.17v-3.66h5.17v-3.7h-5.09v-3.66h5.09V23.4h4.49v26.61H634.64z"/>
	<path d="M660.37,29.41h-5.41v3.78c0,3.74,0.54,6.78,1.63,9.11c1.09,2.33,2.9,4.3,5.45,5.89l-2.98,3.02
		c-1.49-0.98-2.8-2.15-3.94-3.5c-1.14-1.35-1.99-2.71-2.55-4.06c-0.48,1.51-1.33,3.03-2.57,4.55c-1.23,1.52-2.61,2.91-4.12,4.16
		l-3.7-2.78c2.78-1.78,4.83-4.02,6.13-6.72c1.3-2.7,1.95-5.97,1.95-9.79v-3.66h-5.41v-3.78h15.51V29.41z M662.72,57.33V24h4.38
		v11.81h3.02V23.4h4.33V59h-4.33V40.39h-3.02v16.94H662.72z"/>
</g>
<g>
	<path d="M470.21,47.98h6.44V36.65h4.46v11.34c0.66,0,1.54-0.03,2.65-0.1c1.1-0.07,2.25-0.14,3.44-0.22s2.35-0.17,3.48-0.28
		c1.13-0.11,2.06-0.23,2.8-0.36v3.78c-0.9,0.13-2.02,0.26-3.34,0.38c-1.33,0.12-2.81,0.23-4.45,0.34c-1.62,0.08-3.37,0.15-5.25,0.22
		s-3.83,0.1-5.85,0.1h-4.38V47.98z M489.42,25.43c0.4,0,0.68,0.09,0.85,0.26c0.17,0.17,0.26,0.46,0.26,0.85
		c-0.08,3.18-0.24,6.21-0.48,9.09c-0.24,2.88-0.57,5.68-0.99,8.41h-4.61c0.16-0.98,0.32-2.09,0.48-3.32c0.16-1.23,0.3-2.5,0.44-3.8
		c0.11-1.33,0.21-2.65,0.3-3.98c0.09-1.33,0.14-2.57,0.14-3.74H472v-3.78H489.42z M503.7,41.7h-4.77V59h-4.46V23.36h4.46v14.36h4.77
		V41.7z"/>
	<path d="M523.23,25.43c0.4,0,0.68,0.09,0.86,0.26c0.17,0.17,0.26,0.46,0.26,0.85c-0.32,5.49-1.69,10.41-4.12,14.76
		c-2.43,4.35-6.05,8.03-10.88,11.06l-3.78-2.98c4.3-2.31,7.59-5.14,9.88-8.51c2.29-3.37,3.59-7.24,3.88-11.61h-11.81v-3.82H523.23z
		 M530.43,59V40.23h-7.32v-4.02h7.32V23.4h4.49V59H530.43z"/>
</g>
<g>
	<path d="M754.07,25.51h14.6c0.4,0,0.68,0.09,0.86,0.26c0.17,0.17,0.26,0.46,0.26,0.85v22.51c0,0.42-0.09,0.72-0.26,0.88
		c-0.17,0.16-0.46,0.24-0.86,0.24h-14.64c-0.42,0-0.71-0.07-0.86-0.22c-0.15-0.15-0.22-0.43-0.22-0.86V26.62
		c0-0.4,0.08-0.68,0.24-0.85C753.35,25.6,753.65,25.51,754.07,25.51z M765.33,46.47V29.29h-7.92v17.18H765.33z M775.63,59V23.4h4.5
		V59H775.63z"/>
	<path d="M799.26,25.23c0.4,0,0.68,0.09,0.85,0.26c0.17,0.17,0.26,0.46,0.26,0.86v12.29c0,0.42-0.09,0.72-0.26,0.88
		s-0.46,0.24-0.85,0.24h-7.56v6.92l3.38-0.04c0.58,0,1.22-0.02,1.91-0.06c0.69-0.04,1.37-0.1,2.03-0.18
		c0.69-0.05,1.33-0.12,1.93-0.2s1.12-0.17,1.57-0.28v3.74c-0.4,0.05-0.9,0.13-1.51,0.22c-0.61,0.09-1.3,0.18-2.07,0.26
		c-0.77,0.08-1.62,0.15-2.55,0.22c-0.93,0.07-1.9,0.1-2.9,0.1l-5.09,0.04c-0.42,0-0.72-0.08-0.88-0.24s-0.24-0.45-0.24-0.88V37.12
		c0-0.4,0.08-0.68,0.24-0.85c0.16-0.17,0.45-0.26,0.88-0.26h7.52v-6.96h-8.63v-3.82H799.26z M815.45,23.4V59h-4.3V39.67h-3.26v17.66
		h-4.38V24h4.38v11.3h3.26V23.4H815.45z"/>
</g>
<line class="st5" x1="642.08" y1="389.7" x2="642.08" y2="183.98"/>
<g>
	<path class="st6" d="M686.6,117.58h-89.04c-4.7,0-8.5,3.81-8.5,8.5v49.39c0,4.7,3.81,8.5,8.5,8.5h89.04c4.7,0,8.5-3.81,8.5-8.5
		v-49.39C695.1,121.39,691.29,117.58,686.6,117.58z"/>
	<g>
		<path d="M613.06,140.59h17.67v2.29h-17.67V140.59z M622.18,144.59c2.34,0,4.23,0.53,5.69,1.59c1.45,1.06,2.18,2.43,2.18,4.1
			c0,0.86-0.2,1.64-0.61,2.34c-0.41,0.7-0.95,1.32-1.65,1.84c-0.69,0.5-1.52,0.89-2.49,1.18s-2.01,0.43-3.13,0.43
			c-1.15,0-2.2-0.14-3.17-0.43s-1.79-0.68-2.49-1.18c-0.69-0.52-1.23-1.14-1.63-1.84s-0.59-1.49-0.59-2.34
			c0-1.67,0.73-3.04,2.18-4.1C617.95,145.13,619.85,144.59,622.18,144.59z M622.18,146.85c-1.57,0-2.8,0.32-3.67,0.97
			c-0.87,0.64-1.31,1.47-1.31,2.47c0,1.03,0.44,1.87,1.31,2.54c0.87,0.67,2.09,1,3.67,1c1.55,0,2.77-0.33,3.65-1
			c0.88-0.67,1.32-1.51,1.32-2.54c0-1-0.44-1.82-1.32-2.47C624.95,147.17,623.73,146.85,622.18,146.85z M626.69,138.41h-9.34v-2.25
			h9.34V138.41z M619.11,167.35c-0.29,0-0.48-0.05-0.59-0.16c-0.11-0.11-0.16-0.3-0.16-0.59v-8.3h2.83v6.62h18.64v2.43H619.11z
			 M630.88,144.49h5.26v-8.26h2.79v23.36h-2.79v-6.08h-5.26v-2.36h5.26v-4.29h-5.26V144.49z"/>
		<path d="M642.68,159.94c2.62-1.77,4.56-3.95,5.8-6.57c1.24-2.61,1.86-5.92,1.86-9.93v-2.72h-5.22v-2.4h13.2v2.4h-5.12v2.65
			c0,3.6,0.48,6.66,1.45,9.18c0.97,2.52,2.7,4.53,5.21,6.03l-2.11,1.93c-1.14-0.76-2.3-1.88-3.45-3.35
			c-1.16-1.47-2.02-3.15-2.59-5.06c-0.26,0.93-0.61,1.86-1.06,2.79c-0.44,0.93-0.95,1.81-1.52,2.65c-0.6,0.84-1.23,1.62-1.91,2.34
			s-1.37,1.34-2.06,1.84L642.68,159.94z M661.22,166.42v-29.66h2.75v10.98h4.08v-11.52h2.72v31.7h-2.72v-17.46h-4.08v15.96H661.22z"
			/>
	</g>
</g>
<g>
	<path class="st6" d="M888.19,117.58H761.46c-4.7,0-8.5,3.81-8.5,8.5v49.39c0,4.7,3.81,8.5,8.5,8.5h126.73c4.7,0,8.5-3.81,8.5-8.5
		v-49.39C896.69,121.39,892.88,117.58,888.19,117.58z"/>
	<g>
		<path d="M788.4,137.15c0.29,0,0.48,0.05,0.59,0.16s0.16,0.3,0.16,0.59c-0.07,1.05-0.17,2.14-0.29,3.27
			c-0.12,1.13-0.26,2.26-0.43,3.38c-0.14,1.15-0.31,2.24-0.5,3.29c-0.19,1.05-0.37,1.99-0.54,2.83h5.08v2.47h-29.05v-2.47h21.25
			c0.14-0.81,0.3-1.7,0.46-2.67s0.32-1.94,0.47-2.92c0.14-0.98,0.27-1.94,0.39-2.9c0.12-0.95,0.2-1.82,0.25-2.61h-19.43v-2.43H788.4
			z M768.15,167.28c-0.29,0-0.48-0.05-0.59-0.16s-0.16-0.3-0.16-0.59v-9.98h2.75v8.3h19.57v2.43H768.15z"/>
		<path d="M812.77,152.25c-0.64-0.21-1.32-0.49-2.04-0.82c-0.72-0.33-1.43-0.74-2.15-1.22c-0.71-0.48-1.4-1.05-2.06-1.72
			c-0.66-0.67-1.23-1.45-1.74-2.36c-0.76,1.74-1.91,3.18-3.43,4.31s-3.1,2.04-4.72,2.74l-2.04-1.9c1.17-0.41,2.28-0.9,3.34-1.49
			c1.06-0.58,1.99-1.27,2.77-2.06c0.79-0.81,1.42-1.75,1.9-2.81c0.48-1.06,0.72-2.27,0.72-3.63v-1.25h-6.3v-2.36h15.49v2.36h-6.26
			v1.36c0,1.22,0.24,2.31,0.72,3.27c0.48,0.97,1.11,1.81,1.9,2.52c0.79,0.74,1.68,1.35,2.67,1.84c0.99,0.49,1.99,0.88,2.99,1.16
			L812.77,152.25z M821.53,166.85c0,0.29-0.05,0.48-0.16,0.59c-0.11,0.11-0.3,0.16-0.59,0.16h-19.07c-0.29,0-0.48-0.05-0.59-0.16
			s-0.16-0.3-0.16-0.59v-12.31h2.79v3.79h14.99v-3.79h2.79V166.85z M803.75,165.27h14.99v-4.62h-14.99V165.27z M812.16,142.95h6.62
			v-6.73h2.79V153h-2.79v-7.58h-6.62V142.95z"/>
		<path d="M842.82,138.83v20.14c0,0.29-0.05,0.48-0.16,0.59s-0.3,0.16-0.59,0.16h-12.84c-0.29,0-0.48-0.05-0.59-0.16
			s-0.16-0.3-0.16-0.59v-20.14c0-0.29,0.05-0.48,0.16-0.59s0.3-0.16,0.59-0.16h12.84c0.29,0,0.48,0.05,0.59,0.16
			S842.82,138.55,842.82,138.83z M831.3,157.26h8.73v-16.71h-8.73V157.26z M852.05,136.22v31.7h-2.83v-31.7H852.05z"/>
		<path d="M860.21,160.01c-0.29,0-0.48-0.05-0.59-0.16s-0.16-0.3-0.16-0.59V148.6c0-0.29,0.05-0.48,0.16-0.59s0.3-0.16,0.59-0.16
			h7.8v-7.44h-8.55v-2.47h10.52c0.29,0,0.48,0.05,0.59,0.16s0.16,0.3,0.16,0.59v10.8c0,0.29-0.05,0.48-0.16,0.59
			c-0.11,0.11-0.3,0.16-0.59,0.16h-7.76v7.3h2.4c0.64,0,1.39-0.02,2.24-0.05s1.68-0.09,2.49-0.16c0.83-0.07,1.59-0.15,2.27-0.23
			c0.68-0.08,1.17-0.16,1.48-0.23v2.4c-0.29,0.07-0.77,0.15-1.45,0.23c-0.68,0.08-1.45,0.17-2.31,0.27
			c-0.86,0.07-1.78,0.13-2.75,0.18c-0.98,0.05-1.91,0.07-2.79,0.07H860.21z M877.17,136.76v10.63h3.97v-11.16h2.75v31.73h-2.75
			V150.1h-3.97v16.31h-2.75v-29.66H877.17z"/>
	</g>
</g>
<circle cx="642.08" cy="389.7" r="8.4"/>
<line class="st5" x1="1139.2" y1="389.7" x2="1139.2" y2="183.98"/>
<g>
	<path class="st6" d="M1207.66,117.58h-136.92c-4.7,0-8.5,3.81-8.5,8.5v49.39c0,4.7,3.81,8.5,8.5,8.5h136.92c4.7,0,8.5-3.81,8.5-8.5
		v-49.39C1216.16,121.39,1212.36,117.58,1207.66,117.58z"/>
	<g>
		<path d="M1080.74,152.86c-0.31,0-0.51-0.05-0.61-0.14c-0.1-0.09-0.14-0.29-0.14-0.57v-13.7c0-0.29,0.05-0.48,0.16-0.59
			s0.3-0.16,0.59-0.16h13.77v2.47h-11.73v10.16h1.75c2.36,0,4.81-0.09,7.33-0.27s4.87-0.48,7.01-0.91v2.47
			c-1.05,0.21-2.2,0.4-3.43,0.55c-1.24,0.16-2.54,0.29-3.9,0.41c-1.36,0.1-2.75,0.17-4.17,0.21c-1.42,0.05-2.81,0.07-4.17,0.07
			H1080.74z M1083.21,156.87h2.86v7.98h18.21v2.43h-20.32c-0.29,0-0.48-0.05-0.59-0.16s-0.16-0.3-0.16-0.59V156.87z M1103.17,136.22
			v7.83h4.29v2.5h-4.29v12.92h-2.83v-23.26H1103.17z"/>
		<path d="M1138.05,154.5h-12.67v7.23h-2.83v-7.23H1109v-2.43h29.05V154.5z M1125.14,137.44c0,1.31,0.36,2.49,1.09,3.54
			c0.73,1.05,1.66,1.97,2.81,2.75c1.12,0.79,2.36,1.44,3.7,1.97s2.63,0.91,3.85,1.14l-1.9,2.11c-0.93-0.19-1.94-0.5-3.02-0.93
			c-1.09-0.43-2.14-0.97-3.17-1.61c-1.05-0.62-2.01-1.34-2.88-2.16c-0.87-0.82-1.54-1.72-2.02-2.7c-0.55,1.03-1.24,1.94-2.08,2.74
			s-1.75,1.51-2.75,2.13c-1,0.6-2.05,1.11-3.15,1.54c-1.1,0.43-2.16,0.76-3.18,1l-1.86-2.11c1.33-0.29,2.68-0.7,4.04-1.23
			c1.36-0.54,2.59-1.19,3.69-1.95c1.1-0.76,1.99-1.65,2.68-2.65c0.69-1,1.04-2.12,1.04-3.36v-1.4h3.11V137.44z M1113.65,167.28
			c-0.29,0-0.48-0.05-0.59-0.16s-0.16-0.3-0.16-0.59v-8.41h2.79v6.73h19.61v2.43H1113.65z"/>
		<path d="M1157.2,138.83v20.14c0,0.29-0.05,0.48-0.16,0.59s-0.3,0.16-0.59,0.16h-12.84c-0.29,0-0.48-0.05-0.59-0.16
			s-0.16-0.3-0.16-0.59v-20.14c0-0.29,0.05-0.48,0.16-0.59s0.3-0.16,0.59-0.16h12.84c0.29,0,0.48,0.05,0.59,0.16
			S1157.2,138.55,1157.2,138.83z M1145.67,157.26h8.73v-16.71h-8.73V157.26z M1166.43,136.22v31.7h-2.83v-31.7H1166.43z"/>
		<path d="M1174.58,160.01c-0.29,0-0.48-0.05-0.59-0.16s-0.16-0.3-0.16-0.59V148.6c0-0.29,0.05-0.48,0.16-0.59s0.3-0.16,0.59-0.16
			h7.8v-7.44h-8.55v-2.47h10.52c0.29,0,0.48,0.05,0.59,0.16s0.16,0.3,0.16,0.59v10.8c0,0.29-0.05,0.48-0.16,0.59
			c-0.11,0.11-0.3,0.16-0.59,0.16h-7.76v7.3h2.4c0.64,0,1.39-0.02,2.24-0.05s1.68-0.09,2.49-0.16c0.83-0.07,1.59-0.15,2.27-0.23
			c0.68-0.08,1.17-0.16,1.48-0.23v2.4c-0.29,0.07-0.77,0.15-1.45,0.23c-0.68,0.08-1.45,0.17-2.31,0.27
			c-0.86,0.07-1.78,0.13-2.75,0.18c-0.98,0.05-1.91,0.07-2.79,0.07H1174.58z M1191.54,136.76v10.63h3.97v-11.16h2.75v31.73h-2.75
			V150.1h-3.97v16.31h-2.75v-29.66H1191.54z"/>
	</g>
</g>
<g>
	<path class="st6" d="M1034.59,117.58h-107.5c-4.7,0-8.5,3.81-8.5,8.5v49.39c0,4.7,3.81,8.5,8.5,8.5h107.5c4.7,0,8.5-3.81,8.5-8.5
		v-49.39C1043.09,121.39,1039.28,117.58,1034.59,117.58z"/>
	<g>
		<path d="M937.47,137.69h15.46v2.4h-6.26v1.97c0,1.19,0.2,2.3,0.59,3.31s0.91,1.93,1.56,2.74c0.79,1.07,1.73,1.98,2.83,2.72
			c1.1,0.74,2.18,1.29,3.26,1.65c-0.33,0.33-0.68,0.7-1.04,1.11c-0.36,0.41-0.63,0.75-0.82,1.04c-0.64-0.29-1.34-0.67-2.09-1.16
			c-0.75-0.49-1.48-1.05-2.2-1.7c-0.69-0.57-1.34-1.22-1.95-1.95c-0.61-0.73-1.13-1.52-1.56-2.38c-0.33,0.91-0.76,1.75-1.27,2.52
			c-0.51,0.78-1.09,1.5-1.74,2.16c-0.71,0.69-1.48,1.33-2.31,1.91c-0.82,0.58-1.66,1.09-2.52,1.52c-0.21-0.24-0.55-0.56-1.02-0.97
			c-0.46-0.41-0.85-0.74-1.16-1c1.26-0.55,2.47-1.25,3.63-2.11s2.13-1.86,2.92-3c0.62-0.88,1.11-1.86,1.48-2.93
			c0.37-1.07,0.55-2.24,0.55-3.51v-1.93h-6.33V137.69z M942.23,167.28c-0.29,0-0.48-0.05-0.59-0.16s-0.16-0.3-0.16-0.59v-9.41h2.9
			v7.73h18.5v2.43H942.23z M959.19,136.22h2.79v23.26h-2.79V146.2h-6.62v-2.5h6.62V136.22z"/>
		<path d="M983.23,138.83v20.14c0,0.29-0.05,0.48-0.16,0.59s-0.3,0.16-0.59,0.16h-12.84c-0.29,0-0.48-0.05-0.59-0.16
			c-0.11-0.11-0.16-0.3-0.16-0.59v-20.14c0-0.29,0.05-0.48,0.16-0.59c0.11-0.11,0.3-0.16,0.59-0.16h12.84
			c0.29,0,0.48,0.05,0.59,0.16S983.23,138.55,983.23,138.83z M971.71,157.26h8.73v-16.71h-8.73V157.26z M992.46,136.22v31.7h-2.83
			v-31.7H992.46z"/>
		<path d="M1000.62,160.01c-0.29,0-0.48-0.05-0.59-0.16s-0.16-0.3-0.16-0.59V148.6c0-0.29,0.05-0.48,0.16-0.59s0.3-0.16,0.59-0.16
			h7.8v-7.44h-8.55v-2.47h10.52c0.29,0,0.48,0.05,0.59,0.16s0.16,0.3,0.16,0.59v10.8c0,0.29-0.05,0.48-0.16,0.59
			c-0.11,0.11-0.3,0.16-0.59,0.16h-7.76v7.3h2.4c0.64,0,1.39-0.02,2.24-0.05s1.68-0.09,2.49-0.16c0.83-0.07,1.59-0.15,2.27-0.23
			c0.68-0.08,1.17-0.16,1.48-0.23v2.4c-0.29,0.07-0.77,0.15-1.45,0.23c-0.68,0.08-1.45,0.17-2.31,0.27
			c-0.86,0.07-1.78,0.13-2.75,0.18c-0.98,0.05-1.91,0.07-2.79,0.07H1000.62z M1017.58,136.76v10.63h3.97v-11.16h2.75v31.73h-2.75
			V150.1h-3.97v16.31h-2.75v-29.66H1017.58z"/>
	</g>
</g>
<circle cx="1139.2" cy="389.7" r="8.4"/>
<line class="st5" x1="103.23" y1="389.7" x2="103.23" y2="183.98"/>
<g>
	<path class="st6" d="M155.14,117.58H51.31c-4.7,0-8.5,3.81-8.5,8.5v49.39c0,4.7,3.81,8.5,8.5,8.5h103.83c4.7,0,8.5-3.81,8.5-8.5
		v-49.39C163.64,121.39,159.84,117.58,155.14,117.58z"/>
	<g>
		<path d="M60.87,138.23h10.02v2.4h-7.98v16.64h0.68c0.64,0,1.38-0.01,2.22-0.04c0.83-0.02,1.68-0.07,2.54-0.14
			c0.86-0.07,1.69-0.15,2.49-0.23c0.8-0.08,1.51-0.18,2.13-0.3v2.47c-1.43,0.24-3.06,0.44-4.9,0.59c-1.84,0.16-3.67,0.23-5.51,0.23
			h-1.68c-0.31,0-0.51-0.05-0.61-0.14c-0.1-0.09-0.14-0.29-0.14-0.57v-20.14c0-0.29,0.05-0.48,0.16-0.59
			C60.38,138.28,60.58,138.23,60.87,138.23z M77.29,136.76v10.8h4.22v-11.34h2.75v31.7h-2.75v-17.64h-4.22v16.14h-2.72v-29.66H77.29
			z"/>
		<path d="M98.25,148.03v10.59c0.74,0,1.63-0.02,2.67-0.05c1.04-0.04,2.09-0.09,3.17-0.16c1.07-0.07,2.12-0.15,3.15-0.23
			c1.03-0.08,1.92-0.18,2.68-0.3v2.4c-2.67,0.33-5.41,0.57-8.23,0.71c-2.81,0.14-5.9,0.21-9.27,0.21h-3.43v-2.5h3.43l3.11-0.04
			v-10.63H98.25z M105.91,138.12c0.29,0,0.48,0.05,0.59,0.16s0.16,0.3,0.16,0.59c-0.05,1.19-0.11,2.46-0.18,3.79
			s-0.17,2.67-0.29,4.01c-0.14,1.36-0.29,2.69-0.45,3.99c-0.16,1.3-0.34,2.5-0.55,3.6h-2.75c0.14-0.86,0.29-1.85,0.45-2.97
			c0.15-1.12,0.29-2.29,0.41-3.51c0.12-1.24,0.22-2.48,0.3-3.72c0.08-1.24,0.13-2.42,0.13-3.54H90.63v-2.4H105.91z M113.96,149.32
			h4.54v2.54h-4.54v16.1h-2.79v-31.73h2.79V149.32z"/>
		<path d="M136.11,138.05c0.29,0,0.48,0.05,0.59,0.16c0.11,0.11,0.16,0.3,0.16,0.59c-0.12,2.48-0.53,4.83-1.23,7.05
			c-0.7,2.22-1.65,4.28-2.84,6.19c-1.19,1.91-2.6,3.65-4.22,5.22c-1.62,1.57-3.41,2.93-5.37,4.08l-2.29-1.9
			c3.7-1.93,6.67-4.51,8.93-7.75c2.25-3.23,3.55-6.96,3.88-11.18h-10.98v-2.47H136.11z M143.51,167.92v-17.5h-6.87v-2.58h6.87
			v-11.63h2.86v31.7H143.51z"/>
	</g>
</g>
<circle cx="103.23" cy="389.7" r="8.4"/>
<circle cx="1100.01" cy="389.7" r="8.4"/>
<circle cx="729.09" cy="389.7" r="8.4"/>
<circle cx="555.06" cy="389.7" r="8.4"/>
<polyline class="st4" points="1100.01,389.7 1100.01,229.26 968.92,229.26 968.92,183.98 "/>
<polyline class="st4" points="729.09,389.7 729.09,229.26 824.82,229.26 824.82,183.98 "/>
<line class="st4" x1="277.53" y1="389.7" x2="277.53" y2="183.98"/>
<g>
	<path class="st6" d="M521.42,117.58H394.69c-4.7,0-8.5,3.81-8.5,8.5v49.39c0,4.7,3.81,8.5,8.5,8.5h126.73c4.7,0,8.5-3.81,8.5-8.5
		v-49.39C529.92,121.39,526.11,117.58,521.42,117.58z"/>
	<g>
		<path d="M421.63,137.15c0.29,0,0.48,0.05,0.59,0.16s0.16,0.3,0.16,0.59c-0.07,1.05-0.17,2.14-0.29,3.27
			c-0.12,1.13-0.26,2.26-0.43,3.38c-0.14,1.15-0.31,2.24-0.5,3.29s-0.37,1.99-0.54,2.83h5.08v2.47h-29.05v-2.47h21.25
			c0.14-0.81,0.3-1.7,0.46-2.67c0.17-0.97,0.32-1.94,0.47-2.92c0.14-0.98,0.27-1.94,0.39-2.9c0.12-0.95,0.2-1.82,0.25-2.61h-19.43
			v-2.43H421.63z M401.38,167.28c-0.29,0-0.48-0.05-0.59-0.16c-0.11-0.11-0.16-0.3-0.16-0.59v-9.98h2.75v8.3h19.57v2.43H401.38z"/>
		<path d="M446,152.25c-0.64-0.21-1.32-0.49-2.04-0.82c-0.72-0.33-1.43-0.74-2.15-1.22c-0.72-0.48-1.4-1.05-2.06-1.72
			c-0.66-0.67-1.23-1.45-1.73-2.36c-0.76,1.74-1.91,3.18-3.43,4.31c-1.53,1.13-3.1,2.04-4.72,2.74l-2.04-1.9
			c1.17-0.41,2.28-0.9,3.35-1.49c1.06-0.58,1.99-1.27,2.77-2.06c0.79-0.81,1.42-1.75,1.9-2.81c0.48-1.06,0.72-2.27,0.72-3.63v-1.25
			h-6.3v-2.36h15.49v2.36h-6.26v1.36c0,1.22,0.24,2.31,0.72,3.27c0.48,0.97,1.11,1.81,1.9,2.52c0.79,0.74,1.68,1.35,2.67,1.84
			c0.99,0.49,1.99,0.88,2.99,1.16L446,152.25z M454.76,166.85c0,0.29-0.05,0.48-0.16,0.59c-0.11,0.11-0.3,0.16-0.59,0.16h-19.07
			c-0.29,0-0.48-0.05-0.59-0.16s-0.16-0.3-0.16-0.59v-12.31h2.79v3.79h14.99v-3.79h2.79V166.85z M436.98,165.27h14.99v-4.62h-14.99
			V165.27z M445.39,142.95h6.62v-6.73h2.79V153h-2.79v-7.58h-6.62V142.95z"/>
		<path d="M468.68,148.03v10.59c0.74,0,1.63-0.02,2.67-0.05c1.04-0.04,2.09-0.09,3.17-0.16c1.07-0.07,2.12-0.15,3.15-0.23
			c1.03-0.08,1.92-0.18,2.68-0.3v2.4c-2.67,0.33-5.42,0.57-8.23,0.71c-2.81,0.14-5.9,0.21-9.27,0.21h-3.43v-2.5h3.43l3.11-0.04
			v-10.63H468.68z M476.34,138.12c0.29,0,0.48,0.05,0.59,0.16s0.16,0.3,0.16,0.59c-0.05,1.19-0.11,2.46-0.18,3.79
			s-0.17,2.67-0.29,4.01c-0.14,1.36-0.29,2.69-0.45,3.99c-0.16,1.3-0.34,2.5-0.55,3.6h-2.75c0.14-0.86,0.29-1.85,0.45-2.97
			s0.29-2.29,0.41-3.51c0.12-1.24,0.22-2.48,0.3-3.72c0.08-1.24,0.12-2.42,0.12-3.54h-13.09v-2.4H476.34z M484.39,149.32h4.54v2.54
			h-4.54v16.1h-2.79v-31.73h2.79V149.32z"/>
		<path d="M506.53,138.05c0.29,0,0.48,0.05,0.59,0.16c0.11,0.11,0.16,0.3,0.16,0.59c-0.12,2.48-0.53,4.83-1.23,7.05
			c-0.7,2.22-1.65,4.28-2.84,6.19c-1.19,1.91-2.6,3.65-4.22,5.22c-1.62,1.57-3.41,2.93-5.37,4.08l-2.29-1.9
			c3.7-1.93,6.67-4.51,8.93-7.75c2.25-3.23,3.55-6.96,3.88-11.18h-10.98v-2.47H506.53z M513.94,167.92v-17.5h-6.87v-2.58h6.87
			v-11.63h2.86v31.7H513.94z"/>
	</g>
</g>
<g>
	<path class="st6" d="M340.89,117.58H214.17c-4.7,0-8.5,3.81-8.5,8.5v49.39c0,4.7,3.81,8.5,8.5,8.5h126.73c4.7,0,8.5-3.81,8.5-8.5
		v-49.39C349.4,121.39,345.59,117.58,340.89,117.58z"/>
	<g>
		<path d="M219.97,148.07v-11.52h2.75v3.61h15.85v-3.61h2.79v11.52c0,0.29-0.05,0.48-0.16,0.59s-0.3,0.16-0.59,0.16h-8.52v3.94
			h13.09v2.43h-29.05v-2.43h13.09v-3.94h-8.52c-0.29,0-0.48-0.05-0.59-0.16S219.97,148.35,219.97,148.07z M240.54,158.3
			c0.29,0,0.48,0.05,0.59,0.16c0.11,0.11,0.16,0.3,0.16,0.59v9.09h-2.86v-7.41h-18.75v-2.43H240.54z M222.72,146.42h15.85v-3.97
			h-15.85V146.42z"/>
		<path d="M248.52,140.05h18.17v2.18h-18.17V140.05z M257.57,143.7c2.34,0,4.23,0.48,5.69,1.43c1.45,0.95,2.18,2.18,2.18,3.68
			c0,0.76-0.2,1.46-0.61,2.08c-0.41,0.62-0.95,1.16-1.65,1.61c-0.69,0.45-1.52,0.81-2.49,1.06c-0.97,0.25-2.01,0.38-3.13,0.38
			c-1.15,0-2.2-0.12-3.17-0.38c-0.97-0.25-1.8-0.6-2.49-1.06c-0.69-0.45-1.23-0.99-1.63-1.61s-0.59-1.31-0.59-2.08
			c0-1.5,0.73-2.73,2.18-3.68C253.33,144.18,255.23,143.7,257.57,143.7z M257.57,145.74c-1.57,0-2.8,0.28-3.67,0.84
			c-0.87,0.56-1.31,1.31-1.31,2.24c0,0.91,0.44,1.66,1.31,2.25c0.87,0.6,2.09,0.89,3.67,0.89c1.55,0,2.77-0.3,3.65-0.89
			c0.88-0.6,1.32-1.35,1.32-2.25c0-0.93-0.44-1.68-1.32-2.24C260.33,146.02,259.12,145.74,257.57,145.74z M262.22,138.33h-9.41
			v-2.18h9.41V138.33z M253.2,166.88V155.9h2.83v3.33h14.31v-3.33h2.75v10.98c0,0.29-0.05,0.48-0.16,0.59s-0.3,0.16-0.59,0.16
			h-18.39c-0.29,0-0.48-0.05-0.59-0.16S253.2,167.17,253.2,166.88z M256.03,165.31h14.31v-3.79h-14.31V165.31z M273.06,136.22v8.05
			h4.4v2.43h-4.4v7.51h-2.83v-18H273.06z"/>
		<path d="M288.16,148.03v10.59c0.74,0,1.63-0.02,2.67-0.05c1.04-0.04,2.09-0.09,3.17-0.16c1.07-0.07,2.12-0.15,3.15-0.23
			c1.03-0.08,1.92-0.18,2.68-0.3v2.4c-2.67,0.33-5.42,0.57-8.23,0.71c-2.81,0.14-5.9,0.21-9.27,0.21h-3.43v-2.5h3.43l3.11-0.04
			v-10.63H288.16z M295.81,138.12c0.29,0,0.48,0.05,0.59,0.16s0.16,0.3,0.16,0.59c-0.05,1.19-0.11,2.46-0.18,3.79
			s-0.17,2.67-0.29,4.01c-0.14,1.36-0.29,2.69-0.45,3.99c-0.16,1.3-0.34,2.5-0.55,3.6h-2.75c0.14-0.86,0.29-1.85,0.45-2.97
			s0.29-2.29,0.41-3.51c0.12-1.24,0.22-2.48,0.3-3.72c0.08-1.24,0.12-2.42,0.12-3.54h-13.09v-2.4H295.81z M303.86,149.32h4.54v2.54
			h-4.54v16.1h-2.79v-31.73h2.79V149.32z"/>
		<path d="M326.01,138.05c0.29,0,0.48,0.05,0.59,0.16c0.11,0.11,0.16,0.3,0.16,0.59c-0.12,2.48-0.53,4.83-1.23,7.05
			c-0.7,2.22-1.65,4.28-2.84,6.19c-1.19,1.91-2.6,3.65-4.22,5.22c-1.62,1.57-3.41,2.93-5.37,4.08l-2.29-1.9
			c3.7-1.93,6.67-4.51,8.93-7.75c2.25-3.23,3.55-6.96,3.88-11.18h-10.98v-2.47H326.01z M333.41,167.92v-17.5h-6.87v-2.58h6.87
			v-11.63h2.86v31.7H333.41z"/>
	</g>
</g>
<g>
	<path class="st6" d="M478.7,427.35H351.97c-4.7,0-8.5,3.81-8.5,8.5v49.39c0,4.7,3.81,8.5,8.5,8.5H478.7c4.7,0,8.5-3.81,8.5-8.5
		v-49.39C487.2,431.15,483.4,427.35,478.7,427.35z"/>
	<g>
		<path d="M371.47,462.34V447.1h2.75v5.62h8.87v-5.62h2.75v15.24c0,0.29-0.05,0.48-0.16,0.59c-0.11,0.11-0.3,0.16-0.59,0.16h-12.88
			c-0.29,0-0.48-0.05-0.59-0.16S371.47,462.62,371.47,462.34z M374.23,460.69h8.87v-5.58h-8.87V460.69z M374.95,466.95h2.86v7.66
			h18.1v2.43H375.7c-0.29,0-0.48-0.05-0.59-0.16s-0.16-0.3-0.16-0.59V466.95z M392.08,469.28v-23.29h2.83v8.3h4.33v2.5h-4.33v12.49
			H392.08z"/>
		<path d="M410.36,457.79v10.59c0.74,0,1.63-0.02,2.67-0.05c1.04-0.04,2.09-0.09,3.17-0.16c1.07-0.07,2.12-0.15,3.15-0.23
			s1.92-0.18,2.68-0.3v2.4c-2.67,0.33-5.41,0.57-8.23,0.71c-2.81,0.14-5.9,0.21-9.27,0.21h-3.43v-2.5h3.43l3.11-0.04v-10.62H410.36z
			 M418.02,447.88c0.29,0,0.48,0.05,0.59,0.16s0.16,0.3,0.16,0.59c-0.05,1.19-0.11,2.46-0.18,3.79c-0.07,1.34-0.17,2.67-0.29,4.01
			c-0.14,1.36-0.29,2.69-0.45,3.99c-0.16,1.3-0.34,2.5-0.55,3.6h-2.75c0.14-0.86,0.29-1.85,0.45-2.97c0.15-1.12,0.29-2.29,0.41-3.51
			c0.12-1.24,0.22-2.48,0.3-3.72s0.13-2.42,0.13-3.54h-13.09v-2.4H418.02z M426.07,459.08h4.54v2.54h-4.54v16.1h-2.79v-31.73h2.79
			V459.08z"/>
		<path d="M448.22,447.81c0.29,0,0.48,0.05,0.59,0.16c0.11,0.11,0.16,0.3,0.16,0.59c-0.12,2.48-0.53,4.83-1.23,7.05
			c-0.7,2.22-1.65,4.28-2.84,6.19c-1.19,1.91-2.6,3.65-4.22,5.22c-1.62,1.57-3.41,2.93-5.37,4.08l-2.29-1.9
			c3.7-1.93,6.67-4.51,8.93-7.75c2.25-3.23,3.55-6.96,3.88-11.18h-10.98v-2.47H448.22z M455.62,477.69v-17.5h-6.87v-2.58h6.87
			v-11.63h2.86v31.7H455.62z"/>
	</g>
</g>
<polyline class="st4" points="555.06,389.7 555.06,229.26 458.05,229.26 458.05,183.98 "/>
<polyline class="st4" points="344.71,460.55 247.7,460.55 247.7,398.09 "/>
<path d="M345.63,398.09h-136.2c-4.64,0-8.4-3.76-8.4-8.4v0c0-4.64,3.76-8.4,8.4-8.4h136.2c4.64,0,8.4,3.76,8.4,8.4v0
	C354.03,394.33,350.27,398.09,345.63,398.09z"/>
<circle class="st6" cx="277.53" cy="389.7" r="12.35"/>
<g>
	<path d="M1266.54,439.56c-1.49,0-2.64-0.88-2.64-2.03c0-0.55,0.38-2.25,0.93-4.07l4.29-16.28h-4.07c-0.05-0.17-0.05-0.33-0.05-0.33
		c0-0.6,0.38-0.93,1.76-1.37c1.76-0.44,5.22-3.3,7.31-6.05c0.28-0.33,0.44-0.5,0.66-0.5h0.17l0.38,0.83l-1.54,5.66h4.4l-0.27,1.76
		h-4.62l-4.84,18.31c-0.33,0.71,0.06,1.38,0.77,1.38c0.88,0,1.76-0.88,4.45-4.34l0.71,0.39
		C1270.88,438.03,1269.07,439.56,1266.54,439.56z"/>
</g>
</svg>
