<?xml version="1.0" encoding="utf-8"?>
<!-- Generator: Adobe Illustrator 27.0.0, SVG Export Plug-In . SVG Version: 6.00 Build 0)  -->
<svg version="1.1" id="Layer_1" xmlns="http://www.w3.org/2000/svg" xmlns:xlink="http://www.w3.org/1999/xlink" x="0px" y="0px"
	 viewBox="0 0 443.77 127.21" style="enable-background:new 0 0 443.77 127.21;" xml:space="preserve">
<style type="text/css">
	.st0{fill:#FFFFFF;stroke:#000000;stroke-miterlimit:10;}
	.st1{fill:none;stroke:#000000;stroke-miterlimit:10;}
	.st2{font-family:'MyriadPro-Regular';}
	.st3{font-size:21.999px;}
</style>
<rect x="0.5" y="13.18" class="st0" width="130.33" height="52.94"/>
<g>
	<g>
		<polyline class="st1" points="130.83,39.65 196.5,39.65 196.5,74.14 		"/>
		<g>
			<polygon points="196.5,81.2 192.44,71.25 196.5,73.61 200.56,71.25 			"/>
		</g>
	</g>
</g>
<polygon class="st1" points="414.08,81.2 179.75,81.2 179.75,114.03 414.08,114.03 410.59,109.03 417.68,104.85 409.77,99.76 
	416.96,94.31 408.59,89.67 "/>
<line class="st1" x1="211.75" y1="81.2" x2="211.75" y2="114.03"/>
<line class="st1" x1="179.75" y1="81.2" x2="179.75" y2="114.03"/>
<line class="st1" x1="243.75" y1="81.2" x2="243.75" y2="114.03"/>
<line class="st1" x1="275.75" y1="81.2" x2="275.75" y2="114.03"/>
<line class="st1" x1="307.75" y1="81.2" x2="307.75" y2="114.03"/>
<line class="st1" x1="339.75" y1="81.2" x2="339.75" y2="114.03"/>
<line class="st1" x1="371.75" y1="81.2" x2="371.75" y2="114.03"/>
<line class="st1" x1="403.75" y1="81.2" x2="403.75" y2="114.03"/>
<text transform="matrix(1 0 0 1 420.7817 98.6143)" class="st2 st3">. . .</text>
<g>
	<path d="M195.06,104.56c-1.26,0-2.25-0.35-2.97-1.04c-0.72-0.7-1.08-1.6-1.08-2.72c0-0.73,0.17-1.38,0.5-1.92
		c0.33-0.55,0.79-0.98,1.37-1.3s1.26-0.47,2.02-0.47h3.85v-1.01c0-1.7-0.9-2.55-2.68-2.55c-0.81,0-1.46,0.16-1.95,0.48
		c-0.49,0.32-0.76,0.76-0.8,1.3h-1.74c0.07-0.95,0.51-1.74,1.31-2.37c0.8-0.62,1.86-0.93,3.18-0.93c1.42,0,2.52,0.35,3.28,1.06
		s1.14,1.69,1.14,2.97v8.29h-1.72v-2.27h-0.02c-0.12,0.76-0.5,1.37-1.15,1.81C196.94,104.34,196.1,104.56,195.06,104.56z
		 M195.5,103.06c1,0,1.79-0.25,2.38-0.74c0.59-0.49,0.88-1.16,0.88-2.01v-1.83h-3.7c-0.67,0-1.22,0.21-1.65,0.63
		c-0.43,0.42-0.64,0.96-0.64,1.62c0,0.7,0.24,1.27,0.73,1.69C193.98,102.85,194.65,103.06,195.5,103.06z"/>
</g>
<g>
	<path d="M259.06,104.56c-1.26,0-2.25-0.35-2.97-1.04c-0.72-0.7-1.08-1.6-1.08-2.72c0-0.73,0.17-1.38,0.5-1.92s0.79-0.98,1.37-1.3
		c0.59-0.32,1.26-0.47,2.02-0.47h3.85v-1.01c0-1.7-0.9-2.55-2.68-2.55c-0.81,0-1.46,0.16-1.95,0.48c-0.49,0.32-0.76,0.76-0.8,1.3
		h-1.74c0.07-0.95,0.51-1.74,1.31-2.37c0.8-0.62,1.86-0.93,3.18-0.93c1.42,0,2.52,0.35,3.28,1.06s1.14,1.69,1.14,2.97v8.29h-1.72
		v-2.27h-0.02c-0.12,0.76-0.5,1.37-1.16,1.81S260.1,104.56,259.06,104.56z M259.5,103.06c1,0,1.79-0.25,2.38-0.74
		c0.59-0.49,0.88-1.16,0.88-2.01v-1.83h-3.7c-0.67,0-1.22,0.21-1.65,0.63c-0.43,0.42-0.64,0.96-0.64,1.62c0,0.7,0.24,1.27,0.73,1.69
		C257.98,102.85,258.65,103.06,259.5,103.06z"/>
</g>
<g>
	<path d="M228.29,104.56c-0.9,0-1.64-0.22-2.22-0.65s-0.95-1.02-1.1-1.77v2.2h-1.74V88.28h1.74v3.45l-0.02,2.71
		c0.13-0.75,0.5-1.34,1.1-1.77c0.6-0.43,1.35-0.65,2.24-0.65c1.22,0,2.19,0.4,2.9,1.21c0.72,0.81,1.08,1.9,1.08,3.28v3.59
		c0,1.38-0.36,2.47-1.09,3.27C230.45,104.16,229.49,104.56,228.29,104.56z M227.74,103.04c0.88,0,1.57-0.24,2.06-0.71
		c0.49-0.48,0.74-1.22,0.74-2.23v-3.59c0-1.01-0.25-1.76-0.74-2.24c-0.49-0.48-1.18-0.73-2.06-0.73c-0.87,0-1.54,0.27-2.03,0.8
		c-0.49,0.54-0.74,1.28-0.74,2.23V100c0,0.95,0.25,1.7,0.75,2.23S226.89,103.04,227.74,103.04z"/>
</g>
<g>
	<path d="M292.29,104.56c-0.9,0-1.64-0.22-2.22-0.65c-0.59-0.43-0.95-1.02-1.1-1.77v2.2h-1.74V88.28h1.74v3.45l-0.02,2.71
		c0.13-0.75,0.5-1.34,1.1-1.77c0.6-0.43,1.35-0.65,2.24-0.65c1.22,0,2.18,0.4,2.9,1.21s1.08,1.9,1.08,3.28v3.59
		c0,1.38-0.36,2.47-1.09,3.27C294.45,104.16,293.49,104.56,292.29,104.56z M291.74,103.04c0.88,0,1.57-0.24,2.06-0.71
		c0.49-0.48,0.74-1.22,0.74-2.23v-3.59c0-1.01-0.25-1.76-0.74-2.24c-0.49-0.48-1.18-0.73-2.06-0.73c-0.87,0-1.54,0.27-2.03,0.8
		c-0.49,0.54-0.74,1.28-0.74,2.23V100c0,0.95,0.25,1.7,0.75,2.23C290.21,102.77,290.89,103.04,291.74,103.04z"/>
</g>
<path d="M328.27,93.24c0-0.3,0-0.6-0.33-0.6c-0.33,0-0.33,0.3-0.33,0.6v8.68h-7.72v-8.68c0-0.3,0-0.6-0.33-0.6
	c-0.33,0-0.33,0.3-0.33,0.6v8.75c0,0.53,0.07,0.6,0.6,0.6h7.85c0.55,0,0.6-0.05,0.6-0.6V93.24"/>
<path d="M360.27,93.24c0-0.3,0-0.6-0.33-0.6c-0.33,0-0.33,0.3-0.33,0.6v8.68h-7.72v-8.68c0-0.3,0-0.6-0.33-0.6
	c-0.33,0-0.33,0.3-0.33,0.6v8.75c0,0.53,0.07,0.6,0.6,0.6h7.85c0.55,0,0.6-0.05,0.6-0.6V93.24"/>
<path d="M392.27,93.24c0-0.3,0-0.6-0.33-0.6c-0.33,0-0.33,0.3-0.33,0.6v8.68h-7.72v-8.68c0-0.3,0-0.6-0.33-0.6
	c-0.33,0-0.33,0.3-0.33,0.6v8.75c0,0.53,0.07,0.6,0.6,0.6h7.85c0.55,0,0.6-0.05,0.6-0.6V93.24"/>
<g>
	<path d="M48.48,31.47h8.23v1.17h-3.37v1.87c0,2.11,0.34,4.01,1.02,5.71c0.68,1.69,1.79,2.98,3.33,3.86l-1.14,0.97
		c-1.01-0.7-1.84-1.53-2.48-2.48c-0.64-0.95-1.13-2.04-1.48-3.29c-0.31,1.28-0.85,2.49-1.62,3.63c-0.77,1.14-1.68,2.13-2.72,2.95
		L46.88,45c1.76-1.22,3.04-2.71,3.84-4.47c0.8-1.76,1.2-3.94,1.2-6.53v-1.36h-3.43V31.47z M58.87,30.43h1.39v18.28h-1.39V37.8H55.3
		v-1.28h3.56V30.43z M62.7,30.1h1.36v19.54H62.7V30.1z"/>
	<path d="M72.05,30.59c1.28,0,2.33,0.55,3.17,1.64c0.84,1.09,1.31,2.74,1.41,4.94h4.4V30.1h1.41v19.54h-1.41V38.35h-4.38
		c-0.04,2.36-0.49,4.12-1.34,5.28c-0.85,1.16-1.94,1.74-3.26,1.74c-1.36,0-2.48-0.61-3.34-1.84s-1.3-3.08-1.3-5.55
		c0-2.46,0.43-4.31,1.3-5.54C69.57,31.2,70.68,30.59,72.05,30.59z M72.05,31.8c-1.01,0-1.81,0.56-2.4,1.68
		c-0.59,1.12-0.88,2.62-0.88,4.5c0,1.89,0.29,3.4,0.88,4.51c0.59,1.11,1.39,1.67,2.4,1.67c1.01,0,1.8-0.56,2.38-1.67
		c0.57-1.11,0.86-2.62,0.86-4.51c-0.02-1.88-0.3-3.38-0.87-4.5C73.85,32.36,73.06,31.8,72.05,31.8z"/>
</g>
</svg>
