<?xml version="1.0" encoding="utf-8"?>
<!-- Generator: Adobe Illustrator 27.0.0, SVG Export Plug-In . SVG Version: 6.00 Build 0)  -->
<svg version="1.1" id="Layer_1" xmlns="http://www.w3.org/2000/svg" xmlns:xlink="http://www.w3.org/1999/xlink" x="0px" y="0px"
	 viewBox="0 0 284 80.53" style="enable-background:new 0 0 284 80.53;" xml:space="preserve">
<style type="text/css">
	.st0{clip-path:url(#SVGID_00000029751021108266201840000018271129180979226047_);}
</style>
<g>
	<defs>
		<rect id="SVGID_1_" width="284" height="75"/>
	</defs>
	<clipPath id="SVGID_00000033346735380804640210000005553019240250929288_">
		<use xlink:href="#SVGID_1_"  style="overflow:visible;"/>
	</clipPath>
	<g style="clip-path:url(#SVGID_00000033346735380804640210000005553019240250929288_);">
		<path d="M27.48,24.35V7.42c0.04-0.87,0.41-1.68,1.04-2.28c0.63-0.6,1.46-0.93,2.33-0.93c0.87,0,1.7,0.33,2.33,0.93
			c0.63,0.6,1,1.42,1.04,2.28v30.52c-0.01,3.84-1.32,7.56-3.71,10.57c-2.4,3-5.74,5.11-9.49,5.98s-7.68,0.45-11.16-1.19
			c-3.48-1.64-6.3-4.4-8.01-7.84c-1.71-3.44-2.2-7.35-1.4-11.11c0.8-3.75,2.85-7.13,5.82-9.57c2.97-2.45,6.68-3.82,10.52-3.9
			C20.65,20.81,24.41,22.03,27.48,24.35z M27.48,37.95v-0.07c-0.01-2.75-1.11-5.38-3.06-7.32c-1.95-1.94-4.6-3.03-7.36-3.02
			c-2.76,0-5.4,1.1-7.35,3.04c-1.95,1.95-3.04,4.58-3.04,7.33c0,2.75,1.09,5.39,3.04,7.33c1.95,1.95,4.59,3.04,7.35,3.04
			c2.76,0,5.4-1.08,7.36-3.02C26.37,43.33,27.47,40.69,27.48,37.95z"/>
		<path d="M72.42,38.08c0,0.44-0.09,0.88-0.27,1.29c-0.17,0.41-0.43,0.78-0.74,1.09c-0.32,0.31-0.69,0.55-1.1,0.72
			c-0.41,0.16-0.85,0.25-1.3,0.24H45.48c0.7,2.04,2.03,3.81,3.79,5.07c1.76,1.26,3.87,1.93,6.04,1.94c2.71,0.04,5.38-0.74,7.63-2.24
			c1.57-1.02,3.67-0.07,4.5,1.56c0.84,1.64-0.07,3.47-1.64,4.48c-3.07,2.12-6.77,3.15-10.5,2.92c-4.54,0-8.89-1.8-12.1-5
			c-3.21-3.2-5.01-7.54-5.01-12.07s1.8-8.87,5.01-12.07c3.21-3.2,7.56-5,12.1-5C63.55,21.02,72.42,27,72.42,38.08z M45.48,34.71
			h19.72c-1.47-4.76-5.79-6.94-9.88-6.94c-2.16,0-4.26,0.67-6.02,1.91C47.53,30.93,46.2,32.69,45.48,34.71z"/>
		<path d="M100.92,25.71l-10.23,27.2c-0.24,0.66-0.68,1.22-1.25,1.63c-0.57,0.41-1.25,0.63-1.95,0.65h-0.07
			c-0.7-0.01-1.38-0.23-1.95-0.63c-0.57-0.4-1.01-0.96-1.25-1.62L73.99,25.71c-0.18-0.42-0.27-0.87-0.27-1.33
			c0-0.46,0.09-0.91,0.27-1.33c0.18-0.42,0.44-0.8,0.77-1.11c0.33-0.32,0.72-0.56,1.15-0.72c0.43-0.16,0.88-0.23,1.34-0.21
			c0.46,0.02,0.91,0.13,1.32,0.33c0.41,0.2,0.78,0.48,1.08,0.82c0.3,0.34,0.53,0.74,0.67,1.18l7.16,18.97l7.09-18.97
			c0.32-0.84,0.95-1.52,1.77-1.89c0.82-0.37,1.75-0.4,2.59-0.09c0.84,0.32,1.52,0.95,1.89,1.77
			C101.21,23.94,101.24,24.87,100.92,25.71L100.92,25.71z"/>
		<path d="M102.28,38.08c0.01-3.38,1.01-6.67,2.9-9.48c1.89-2.8,4.56-4.99,7.69-6.27c3.13-1.29,6.57-1.62,9.89-0.96
			c3.32,0.66,6.37,2.29,8.76,4.68c2.39,2.39,4.02,5.43,4.68,8.74c0.66,3.31,0.32,6.74-0.98,9.86c-1.3,3.12-3.49,5.78-6.3,7.66
			c-2.82,1.87-6.12,2.88-9.51,2.88c-2.25,0-4.48-0.44-6.56-1.3c-2.08-0.86-3.97-2.12-5.56-3.71c-1.59-1.59-2.85-3.47-3.71-5.55
			C102.72,42.55,102.28,40.33,102.28,38.08z M109.03,38.08c0,2.04,0.61,4.04,1.75,5.74c1.14,1.7,2.76,3.03,4.65,3.81
			c1.9,0.78,3.98,0.99,5.99,0.59c2.01-0.4,3.86-1.38,5.31-2.83c1.45-1.45,2.44-3.29,2.84-5.29c0.4-2.01,0.19-4.08-0.59-5.97
			c-0.79-1.89-2.11-3.5-3.82-4.64c-1.7-1.14-3.71-1.74-5.76-1.74c-2.75,0.01-5.38,1.1-7.32,3.04
			C110.14,32.72,109.04,35.35,109.03,38.08z"/>
		<path d="M174.76,38.08v13.66c0.02,0.46-0.05,0.91-0.21,1.34c-0.16,0.43-0.4,0.82-0.72,1.15c-0.31,0.33-0.69,0.59-1.11,0.77
			c-0.42,0.18-0.87,0.27-1.33,0.27s-0.91-0.09-1.33-0.27c-0.42-0.18-0.8-0.44-1.12-0.77c-0.32-0.33-0.56-0.72-0.72-1.15
			c-0.16-0.43-0.23-0.88-0.21-1.34V38.08c0.04-1.38-0.2-2.75-0.71-4.04c-0.51-1.29-1.26-2.46-2.23-3.45
			c-0.97-0.99-2.12-1.78-3.4-2.31s-2.65-0.81-4.03-0.81c-1.38,0-2.75,0.28-4.03,0.81c-1.28,0.54-2.43,1.32-3.4,2.31
			c-0.97,0.99-1.72,2.16-2.23,3.45c-0.5,1.29-0.74,2.66-0.71,4.04v13.66c0.02,0.46-0.05,0.91-0.21,1.34
			c-0.16,0.43-0.4,0.82-0.72,1.15c-0.32,0.33-0.69,0.59-1.12,0.77c-0.42,0.18-0.87,0.27-1.33,0.27s-0.91-0.09-1.33-0.27
			c-0.42-0.18-0.8-0.44-1.12-0.77c-0.32-0.33-0.56-0.72-0.72-1.15c-0.16-0.43-0.23-0.88-0.21-1.34V38.08
			c0.09-4.47,1.94-8.72,5.14-11.84c3.2-3.13,7.5-4.88,11.98-4.88c4.48,0,8.78,1.75,11.98,4.88
			C172.83,29.37,174.67,33.62,174.76,38.08z"/>
		<path d="M213.01,38.08v13.66c0.02,0.46-0.05,0.91-0.21,1.34c-0.16,0.43-0.4,0.82-0.72,1.15c-0.32,0.33-0.7,0.59-1.12,0.77
			c-0.42,0.18-0.87,0.27-1.33,0.27c-0.46,0-0.91-0.09-1.33-0.27c-0.42-0.18-0.8-0.44-1.12-0.77c-0.31-0.33-0.56-0.72-0.72-1.15
			c-0.16-0.43-0.23-0.88-0.21-1.34V38.08c0.04-1.38-0.2-2.75-0.71-4.04c-0.5-1.29-1.26-2.46-2.23-3.45
			c-0.97-0.99-2.12-1.78-3.4-2.31c-1.28-0.54-2.65-0.81-4.03-0.81c-1.39,0-2.76,0.28-4.03,0.81c-1.28,0.54-2.43,1.32-3.4,2.31
			c-0.97,0.99-1.72,2.16-2.23,3.45c-0.5,1.29-0.74,2.66-0.71,4.04v13.66c0.02,0.46-0.05,0.91-0.21,1.34
			c-0.16,0.43-0.41,0.82-0.72,1.15c-0.32,0.33-0.7,0.59-1.12,0.77c-0.42,0.18-0.87,0.27-1.33,0.27s-0.91-0.09-1.33-0.27
			c-0.42-0.18-0.8-0.44-1.11-0.77c-0.32-0.33-0.56-0.72-0.72-1.15c-0.16-0.43-0.23-0.88-0.21-1.34V38.08
			c0.09-4.47,1.94-8.72,5.14-11.84c3.2-3.13,7.5-4.88,11.98-4.88c4.48,0,8.78,1.75,11.98,4.88
			C211.08,29.37,212.92,33.62,213.01,38.08z"/>
		<path d="M244.51,24.42v17.13c0,3.65-1.46,7.15-4.04,9.73c-2.59,2.58-6.1,4.03-9.76,4.03c-3.66,0-7.17-1.45-9.76-4.03
			c-2.59-2.58-4.04-6.08-4.04-9.73V24.42c0.04-0.87,0.41-1.68,1.04-2.28c0.63-0.6,1.47-0.93,2.33-0.93c0.87,0,1.71,0.33,2.33,0.93
			c0.63,0.6,1,1.42,1.04,2.28v17c-0.03,0.94,0.13,1.88,0.47,2.76c0.34,0.88,0.86,1.68,1.51,2.36c0.66,0.68,1.45,1.22,2.32,1.59
			c0.87,0.37,1.81,0.56,2.75,0.56c0.95,0,1.88-0.19,2.76-0.56c0.87-0.37,1.66-0.91,2.32-1.59c0.66-0.68,1.17-1.48,1.51-2.36
			c0.34-0.88,0.5-1.82,0.47-2.76v-17c0-0.89,0.36-1.75,0.99-2.38c0.63-0.63,1.49-0.99,2.38-0.99c0.89,0,1.75,0.35,2.38,0.99
			C244.15,22.67,244.51,23.53,244.51,24.42z"/>
		<path d="M268.93,24.42c0,0.9-0.36,1.76-1,2.4c-0.64,0.64-1.5,1-2.41,1c-1.36,0-2.71,0.27-3.97,0.78c-1.26,0.52-2.4,1.28-3.36,2.24
			c-0.96,0.96-1.73,2.1-2.25,3.35c-0.52,1.25-0.79,2.6-0.79,3.96v13.67c0.02,0.46-0.05,0.91-0.21,1.34
			c-0.16,0.43-0.41,0.82-0.72,1.15c-0.32,0.33-0.7,0.59-1.12,0.77c-0.42,0.18-0.87,0.27-1.33,0.27s-0.91-0.09-1.33-0.27
			c-0.42-0.18-0.8-0.44-1.11-0.77c-0.32-0.33-0.56-0.72-0.72-1.15c-0.16-0.43-0.23-0.88-0.21-1.34V38.15
			c0-4.53,1.81-8.87,5.02-12.06c3.21-3.2,7.56-5,12.1-5c0.44-0.01,0.89,0.07,1.3,0.24c0.41,0.16,0.79,0.41,1.11,0.72
			c0.32,0.31,0.57,0.68,0.74,1.09C268.83,23.54,268.92,23.98,268.93,24.42z"/>
		<path d="M273.01,51.82v-27.4c0.04-0.87,0.41-1.68,1.04-2.28c0.63-0.6,1.46-0.93,2.33-0.93c0.87,0,1.71,0.33,2.33,0.93
			c0.63,0.6,1,1.42,1.04,2.28v27.4c0.02,0.46-0.05,0.91-0.21,1.34c-0.16,0.43-0.4,0.82-0.72,1.15c-0.32,0.33-0.7,0.59-1.11,0.77
			c-0.42,0.18-0.87,0.27-1.33,0.27s-0.91-0.09-1.33-0.27c-0.42-0.18-0.8-0.44-1.11-0.77c-0.32-0.33-0.56-0.72-0.72-1.15
			C273.06,52.73,272.99,52.28,273.01,51.82z"/>
		<path d="M114.2,34.86c-0.4,0-0.79,0.12-1.12,0.34c-0.33,0.22-0.59,0.53-0.75,0.9s-0.2,0.77-0.12,1.16
			c0.08,0.39,0.27,0.75,0.55,1.03c0.28,0.28,0.64,0.48,1.03,0.56c0.39,0.08,0.8,0.05,1.17-0.1c0.37-0.15,0.69-0.4,0.91-0.73
			c0.22-0.33,0.35-0.72,0.35-1.11c0-0.27-0.05-0.53-0.15-0.78c-0.1-0.25-0.25-0.47-0.44-0.66c-0.19-0.19-0.41-0.34-0.66-0.45
			C114.73,34.92,114.47,34.86,114.2,34.86z"/>
		<path d="M124.41,41.88c1.12,0,2.02-0.9,2.02-2.02c0-1.11-0.91-2.02-2.02-2.02c-1.12,0-2.02,0.9-2.02,2.02
			C122.38,40.98,123.29,41.88,124.41,41.88z"/>
		<path d="M275.5,14.18c0,0-5.87-1.32,0.53-8.42c6.39-7.1,6.14-6.11,6.16-4.91c0.02,1.2-1.14,10.31-2.99,11.93
			c-0.49,0.47-1.07,0.83-1.7,1.07C276.86,14.09,276.18,14.2,275.5,14.18z"/>
	</g>
</g>
<g>
	<path d="M247.7,75.41l-0.22,0.26c-0.62,0.79-0.86,1.03-1.08,1.03c-0.17,0-0.22-0.07-0.26-0.72l-0.7-7.66l-2.14,3.74
		c-0.43,0.72-0.86,1.51-1.32,2.38c-0.86,1.66-1.27,2.26-1.54,2.26c-0.22,0-0.26-0.19-0.31-1.13l-0.1-2.11
		c-0.1-1.94-0.41-4.73-0.67-5.88c-0.19-0.86-0.36-1.01-1.06-1.01h-0.22h-0.48v-0.31l0.62-0.1l1.1-0.19
		c0.41-0.19,0.82-0.29,1.22-0.29c0.26,0,0.31,0.05,0.46,0.82c0.34,1.73,0.67,4.63,0.77,6.74l4.61-7.3c0.12-0.19,0.19-0.24,0.31-0.24
		c0.14,0,0.19,0.07,0.19,0.34l0.77,8.45c3.14-3.94,3.96-5.21,3.96-6.24c0-0.29-0.14-0.53-0.53-0.89c-0.38-0.36-0.5-0.55-0.5-0.89
		c0-0.48,0.36-0.79,0.94-0.79c0.72,0,1.25,0.53,1.25,1.25C252.79,68.48,251.04,71.41,247.7,75.41z"/>
	<path d="M255.52,76.54c-0.72,0-1.1-0.48-1.1-1.37c0-0.48,0.14-1.18,0.53-2.62l1.15-4.25c0.14-0.46,0.22-0.86,0.22-1.06
		c0-0.48-0.22-0.55-1.51-0.58v-0.38c0.94-0.07,1.42-0.14,3.84-0.6l0.07,0.05l-2.11,7.73c-0.14,0.48-0.38,1.2-0.38,1.58
		c0,0.19,0.19,0.36,0.38,0.36c0.41,0,0.94-0.5,1.97-1.87l0.31,0.26C257.51,75.82,256.65,76.54,255.52,76.54z M258.69,63.39
		c-0.7,0-1.15-0.5-1.15-1.27c0-0.74,0.48-1.27,1.13-1.27c0.65,0,1.2,0.62,1.2,1.32C259.87,62.84,259.31,63.39,258.69,63.39z"/>
	<path d="M267.55,76.54c-0.7,0-1.13-0.46-1.9-1.97c-0.43-0.84-1.06-2.33-1.44-3.38l-1.01,0.77l-1.15,4.32h-1.8l3.05-11.59l0.05-0.22
		l0.22-0.79c0.34-1.13,0.48-1.75,0.53-2.16c-0.05-0.43-0.41-0.6-1.22-0.6h-0.41v-0.38c1.42-0.17,2.33-0.34,3.74-0.65l0.12,0.12
		l-2.88,10.97l1.03-0.79c2.26-1.73,3.43-2.88,3.43-3.36c0-0.26-0.34-0.43-0.94-0.43h-0.38v-0.38h4.39v0.38
		c-1.13,0.07-1.87,0.55-5.4,3.7l0.89,2.11c0.96,2.33,1.44,3.1,1.94,3.1c0.36,0,0.65-0.26,1.08-1.01c0.12-0.19,0.24-0.41,0.36-0.62
		l0.36,0.26C269.11,75.94,268.51,76.54,267.55,76.54z"/>
	<path d="M272.85,76.54c-0.72,0-1.1-0.48-1.1-1.37c0-0.48,0.14-1.18,0.53-2.62l1.15-4.25c0.14-0.46,0.22-0.86,0.22-1.06
		c0-0.48-0.22-0.55-1.51-0.58v-0.38c0.94-0.07,1.42-0.14,3.84-0.6l0.07,0.05l-2.11,7.73c-0.14,0.48-0.38,1.2-0.38,1.58
		c0,0.19,0.19,0.36,0.38,0.36c0.41,0,0.94-0.5,1.97-1.87l0.31,0.26C274.84,75.82,273.98,76.54,272.85,76.54z M276.02,63.39
		c-0.7,0-1.15-0.5-1.15-1.27c0-0.74,0.48-1.27,1.13-1.27c0.65,0,1.2,0.62,1.2,1.32C277.19,62.84,276.64,63.39,276.02,63.39z"/>
</g>
</svg>
